<svg id="Layer_1" data-name="Layer 1" xmlns="http://www.w3.org/2000/svg" viewBox="0 0 1557 1296"><path d="M633,718h784a9.68,9.68,0,0,0,1.77.75c35.44,6.61,60.43,26.25,74.56,59.56,9,21.27,18.16,42.5,27.24,63.76q44.37,103.9,88.73,207.82,29.39,68.8,58.89,137.56a12.68,12.68,0,0,0,5.37,6,228.92,228.92,0,0,1,59.6,41.53c35.68,34.77,58.08,76.63,66.24,125.88,1.6,9.65,2.42,19.42,3.6,29.14v273c-.38,2.27-.88,4.52-1.14,6.8-4.8,42-39.3,77.94-81,83.21-13.79,1.74-27.9,1.18-41.86,1.22-4.77,0-6.18,1.3-6.17,6.16.18,52.29.1,104.58.14,156.87,0,39.76-24.33,75.74-61.55,89.8-8.76,3.31-18.26,4.68-27.41,6.94H1438a10,10,0,0,0-2.27-.83,96.67,96.67,0,0,1-86.32-96.38q0-78.21.17-156.44c0-4.94-1.38-6.15-6.15-6.14q-318.65.15-637.28,0c-5.17,0-6.36,1.52-6.34,6.5.19,51.65.14,103.3.14,154.94,0,46.41-29.81,84.61-74.83,95.73-4.64,1.14-9.41,1.78-14.12,2.66H465c-4.7-.9-9.46-1.56-14.09-2.73-45.14-11.42-74.63-49.41-74.61-96,0-51.66,0-103.32.16-155,0-4.95-1.5-6.28-6.23-6.11-9.32.33-18.66.21-28,.1a96.49,96.49,0,0,1-93.6-76.66c-1-4.85-1.77-9.78-2.64-14.67V1561c.18-2.64.5-5.28.51-7.92,0-51.82-.44-103.63.28-155.43.24-17,1.75-34.44,5.78-50.91,16.94-69.36,57.91-120.17,121.68-152.41a13.45,13.45,0,0,0,7-7.21Q404,1133.39,427,1079.78,491.6,928.45,556.24,777.12a96.49,96.49,0,0,1,39-45.48C606.9,724.48,619.68,720.49,633,718Zm391.16,972.7v0q177.49,0,355,0,161.74,0,323.49,0c8.61,0,16.51-1.91,23.3-7.44,9.37-7.63,12.53-17.41,12.48-29.48-.3-84.83-.11-169.67-.2-254.5a155.08,155.08,0,0,0-1.53-24.39c-7.76-48.1-31.9-85.93-72.49-112.94-28.32-18.84-59.83-26.56-93.7-26.46-75.33.22-150.67,0-226,0q-434,0-868,0c-48.76,0-90.17,17.18-123.26,53.06-27.49,29.8-42.39,65.33-42.62,106-.49,86.49.23,173-.36,259.49-.14,20.59,15.1,36.87,36.89,36.84Q685.67,1690.49,1024.16,1690.7Zm567.49-519.22c-.76-2-1.27-3.54-1.89-5q-77.31-181-154.56-361.94c-6.75-15.86-18.18-23.47-35.22-23.47q-375.72,0-751.43,0c-16.22,0-27.64,7.35-34,22.28Q536.7,985.73,459,1168.1a29.22,29.22,0,0,0-.95,3.38ZM538.17,1754.3v0q-46.23,0-92.46,0c-3.26,0-5.74-.07-5.73,4.55.13,52.48-.06,105,.17,157.44.09,19.18,14.56,33.43,33.74,33.52q64.22.29,128.44,0c19.37-.09,33.49-14.79,33.51-34.2.06-51.81,0-103.63.2-155.44,0-4.61-1.25-6-5.91-6C599.48,1754.39,568.82,1754.3,538.17,1754.3Zm972.33,0v0q-46.23,0-92.47,0c-3.3,0-5.17.37-5.16,4.51.14,52.81,0,105.63.17,158.44,0,17.59,14.49,32.42,32,32.52,43.81.25,87.63.15,131.44,0,10.49,0,18.9-4.77,25.35-13,5.63-7.15,6.66-15.33,6.6-24.32-.3-50.64-.21-101.29,0-151.93,0-5.23-1.58-6.37-6.51-6.33C1571.48,1754.43,1541,1754.33,1510.5,1754.33Z" transform="translate(-246 -718)"/><path d="M537.6,1624.75c-89.13.1-161.39-72.47-161.43-162.13,0-89.13,72.72-161.59,162.16-161.49,89.25.1,161.32,72.55,161.36,162.22C699.74,1552.6,627.38,1624.64,537.6,1624.75Zm1-259.38c-53.94-.08-98.63,44.22-98.41,97.57s44.38,97.5,97.46,97.7c53.26.2,98-44.2,98.12-97.5C636,1410,591.66,1365.45,538.63,1365.37Z" transform="translate(-246 -718)"/><path d="M1511,1624.46a161.12,161.12,0,0,1-161.42-161.85c.06-89.25,72.81-161.66,162.12-161.36,88.82.31,161.1,72.77,161.15,161.57A161.5,161.5,0,0,1,1511,1624.46Zm-.31-63.62c53.52.15,98.28-44.45,98.28-97.92,0-52.54-44.09-96.94-95.78-97.85-52.15-.92-99.36,41.13-100,97.11C1412.65,1515.82,1457.3,1560.69,1510.68,1560.84Z" transform="translate(-246 -718)"/><path d="M1024.61,1430.19q-113.2,0-226.41,0c-17,0-29.72-10.8-32.43-27.27-3-18.48,10.94-35.78,29.78-36.8,3-.16,6-.14,9-.14q221.93,0,443.84-.06c13.38,0,24.2,4.47,30.94,16.37,12.29,21.71-3.2,47.88-28.29,47.89Q1137.82,1430.25,1024.61,1430.19Z" transform="translate(-246 -718)"/><path d="M1024.48,1496h226c19,0,32.66,13.21,32.73,31.53.06,18.93-13.57,32.54-32.85,32.55q-120.74,0-241.47,0H799.39c-19,0-32.41-11.31-33.93-30.13-1.5-18.62,12.9-33.14,30.55-33.89,7.15-.3,14.33,0,21.5,0Z" transform="translate(-246 -718)"/></svg>