<svg id="Layer_1" data-name="Layer 1" xmlns="http://www.w3.org/2000/svg" viewBox="0 0 1217 1217"><path d="M1664,1743h-18c-8.54-2.51-16.4-6.19-22.91-12.49-14.83-14.34-30-28.37-44.59-42.92-29.52-29.36-58.76-59-88.17-88.5q-50.46-50.58-101-101.1-51.28-51.52-102.4-103.24-38.58-38.8-77.32-77.45-28.74-28.85-57.36-57.81-19.53-19.7-39.08-39.36c-6.18-6.19-12.51-12.22-19.57-19.09-6.1,6.37-11.85,12.61-17.84,18.61q-49.57,49.72-99.24,99.34-48.3,48.18-96.74,96.2-51.66,51.51-103.17,103.18-39.09,39-78.28,77.91-42.65,42.51-85.22,85.09c-15.92,15.88-31.47,32.17-48,47.43-25.83,23.9-65.84,12.7-76.37-20.85-.53-1.67-1.18-3.3-1.77-5v-17c3.15-9.48,6.88-18.53,14.26-25.78q37.79-37.14,75.26-74.59,55.13-54.8,110.21-109.62,56-55.71,111.92-111.45,67.47-67.18,134.94-134.38,43.74-43.54,87.59-87c2.45-2.44,5.46-4.32,8.33-6.56-2.28-2.53-3.23-3.67-4.26-4.71q-24.13-24.3-48.28-48.56-48.91-49-97.88-97.91c-24.81-24.89-49.47-49.94-74.29-74.83q-63.52-63.71-127.14-127.32-48-48.13-95.83-96.42-40.53-41.05-80.64-82.53c-17.71-18.35-16.1-50.48,3.71-66.5,6.38-5.16,14.68-8,22.1-11.84h17c8.31,2.89,16.62,5.74,23,12.25,3.5,3.57,7.23,6.91,10.76,10.45q61.49,61.88,122.94,123.75Q750.81,722.76,801,772.92q49,49.23,97.88,98.62Q949.13,922,999.5,972.37q40.23,40.38,80.36,80.82c5.11,5.13,10.41,10.09,15.69,15.19,1.23-1.08,2-1.7,2.69-2.39q40.08-39.79,80.13-79.62,39.64-39.52,79.18-79.16c17.93-17.88,36-35.61,54-53.48q44.8-44.62,89.5-89.34Q1452.45,713,1503.9,661.6q27.78-27.72,55.66-55.32c22.09-22,43.89-44.24,66.32-65.86,12.57-12.11,28-15.88,44.87-10.48s28,16.89,32.06,34.52A13.6,13.6,0,0,0,1704,567v15a17,17,0,0,0-1.13,2.65c-2.16,8.93-6.11,16.86-12.68,23.39q-21.62,21.5-43.21,43-66.4,66.12-132.8,132.23-62.72,62.37-125.52,124.65-31.9,31.71-63.72,63.49-25.85,25.76-51.66,51.53l-55.94,55.72q-26.73,26.64-53.49,53.23c-2.25,2.23-1.93,3.65.16,5.71,9.61,9.48,19.06,19.1,28.6,28.65q39.21,39.23,78.44,78.46c17.76,17.8,35.41,35.73,53.17,53.54q42.33,42.46,84.75,84.86,59.87,59.94,119.71,119.88,52.39,52.55,104.72,105.18c18.46,18.53,37.08,36.89,55.46,55.5,17.25,17.47,17.7,46.38,1.16,64.37C1683,1735.75,1674,1740.39,1664,1743Z" transform="translate(-487 -526)"/></svg>