<svg id="Layer_1" data-name="Layer 1" xmlns="http://www.w3.org/2000/svg" viewBox="0 0 1589 1196"><path d="M301,1517c4.61-17.29,14.83-31.89,23-47.42,23.7-44.88,47.87-89.53,71.85-134.26l64.63-120.58,64.15-119.69q23.82-44.44,47.66-88.88,34.27-64,68.54-128.1,32.07-59.84,64.25-119.62,11.57-21.56,23-43.18c9.6-18.15,24.78-26,44-22.21a35.23,35.23,0,0,1,25.17,18.79Q842.5,797,887.42,882.22q17.13,32.44,34.16,64.94a37.23,37.23,0,0,0,2.23,3.19c2-3.4,3.71-6.25,5.29-9.2q41.31-77,82.55-154,43.94-82.08,87.8-164.22,43-80.32,86-160.62c13.51-25.23,27.07-50.43,40.43-75.74,6.27-11.88,15.8-19,28.91-21.57a10.43,10.43,0,0,0,2.16-1h7c9.22,2.43,18.72,4.92,24.77,12.79,5,6.53,9,13.94,12.91,21.26q35,65.93,69.75,132,40.39,76.62,80.75,153.25,38,72,76.1,143.87,48.77,92.26,97.46,184.54c4.2,7.95,8.48,15.85,12.57,23.86,6,11.84,2.27,25.2-8.67,31.11-11.73,6.34-25.14,2.47-31.61-9.63-13.2-24.64-26.12-49.44-39.15-74.16-.84-1.6-1.75-3.15-3-5.46-2.84,3.05-5.33,5.58-7.66,8.25-32.59,37.2-65.29,74.32-97.67,111.7-12.07,13.94-26.44,20.39-44.35,14.46a39.4,39.4,0,0,1-16.79-11c-33.59-39-66.67-78.39-99.92-117.66q-44.55-52.6-89.12-105.19c-2.45-2.9-4.92-5.77-7.83-9.18-6,6.62-11.63,12.85-17.24,19.13Q1133.64,934.46,1092,981c-17.16,19.13-44.85,18-60.68-2.46-13-16.86-25.85-33.88-38.77-50.82-.69-.9-1.48-1.72-2.83-3.29-3.4,6.21-6.57,11.93-9.67,17.7C970.49,960,961,978,951.25,995.79a7.21,7.21,0,0,0,0,7.76q42.72,80.73,85.29,161.56,40.23,76.41,80.34,152.91,46.67,88.83,93.31,177.68c2.48,4.72,5,9.43,7.17,14.28,1.51,3.35,3.64,4.44,7.33,4.43,46-.13,92-.08,138-.09l469.94-.08h6.65c-4.53-8.67-8.48-16.3-12.48-23.89q-38.8-73.51-77.64-147-32.18-60.93-64.36-121.84c-7.23-13.68-14.59-27.3-21.7-41-6.46-12.48-2.34-26.27,9.37-32.19s24.92-1.23,31.54,11.29q42.8,81,85.67,162,47.6,90,95.09,180.14c2.08,3.95,3.52,8.23,5.26,12.36v16c-3.4,6-6.27,12.35-10.33,17.83-5,6.77-13,9.36-20.67,12.17H332c-6.15-3.41-12.79-6.19-18.35-10.39-7.6-5.74-10.27-14.74-12.65-23.61Zm868.41-3-108.77-206.08c-1.67,1.34-2.61,2-3.44,2.77q-29.22,26.93-58.39,53.87c-15.61,14.44-38.06,15.52-52.92,1.3-23-22-45.39-44.63-67.83-67.2a22,22,0,0,1-3.55-26c8-14.86,25.78-16.42,38.65-3.52,15.76,15.81,31.68,31.44,47.4,47.28,3.59,3.62,6.63,7.77,9.92,11.68,2-1.72,2.63-2,3.11-2.48,20.08-18.52,40-37.18,60.32-55.45,4-3.59,3.78-6,1.46-10.36q-27.81-51.93-55.16-104.11-34.12-64.68-68.18-129.4Q877.55,961,843,895.72,805.08,824,767.16,752.26c-1-1.83-2-3.6-3.62-6.37L550.72,1143.42,620.57,1202c1.12-1.07,2.13-1.91,3-2.88q37.61-42.1,75.17-84.26c14.58-16.41,39.57-18.22,55.34-3.09,19.35,18.55,38.26,37.56,57.1,56.63,9.18,9.28,8.68,23.23-.49,32.22-8.73,8.56-22.88,8.44-32-.49-15.46-15.17-30.8-30.46-46.21-45.7-1.25-1.23-2.57-2.41-4.1-3.84-1.95,2.1-3.55,3.76-5.08,5.48-24.29,27.21-48.4,54.58-72.9,81.6-15,16.6-37.48,17.71-54.63,3.35q-24.9-20.85-49.77-41.73c-5.57-4.66-11.19-9.26-17.44-14.44-58.84,110-117.34,219.25-176.2,329.22Zm91.43-1095.15c-1.52,2.57-2.41,3.95-3.18,5.39q-29.79,55.67-59.58,111.35-40.49,75.46-81.06,150.87-50.94,95.06-101.85,190.13c-1.46,2.71-1.15,4.25.61,6.53,10.61,13.69,21,27.52,31.54,41.28,5.1,6.69,10.25,13.35,15.74,20.49,2.75-3,5-5.33,7.21-7.78,31.3-35,62.43-70.18,94-105,16-17.71,42.57-17,58.12,1.23,23.8,27.85,47.39,55.87,71.05,83.82q60.69,71.7,121.31,143.43c1,1.24,1.43,3.05,2.12,4.6,9.32-10.12,16.63-18.74,24-27.35Q1485,985.93,1529.19,934c1.78-2.09,2-3.81.7-6.21-3.26-5.8-6.33-11.71-9.44-17.59q-40.37-76.37-80.71-152.74-46.38-87.86-92.7-175.73Q1311.72,514.87,1276.3,448Z" transform="translate(-301 -364)"/></svg>