<svg id="Layer_1" data-name="Layer 1" xmlns="http://www.w3.org/2000/svg" viewBox="0 0 1313 1313"><path d="M1203,515c1.86.5,3.72,1,5.59,1.49,20.75,5.36,35,18,41.74,38.37,1.44,4.4,3.44,5,7.35,5q93.73-.15,187.49,0c28.29,0,53.8,18.26,62.58,44.44,14.65,43.72-17.33,87.75-64,87.82q-92.49.14-185-.07c-4.7,0-7,.77-8.82,5.9-7.66,22.11-23.66,34.69-46.75,38.17-3.72.56-5.29,1.8-5.25,5.95.23,21.16.2,42.33,0,63.49,0,4.16,1.24,5.46,5.39,5.42,19.33-.17,38.66-.08,58-.08,41.14,0,75.24,23.07,90.27,61.28,1.47,3.74,3.3,4.88,7.25,4.87,56.83-.1,113.68-1,170.48.32,54.57,1.31,99.88,24.34,136.14,65a180.81,180.81,0,0,1,42.29,83.09,212.38,212.38,0,0,1,4.83,40.82c.69,34.65.32,69.33.24,104,0,10.12-6.84,17.69-16.42,18.78-11.81,1.35-20.84-6.67-20.84-18.59,0-33.17.11-66.33,0-99.5-.19-44.62-15.88-82.93-48.08-114-25.28-24.35-55.56-38.55-90.67-41.9-5.62-.53-11.28-.93-16.92-.94-52-.07-104,0-156-.15-4.84,0-6,1.35-6,6.11.17,57.83.11,115.66.12,173.49v6.11c2,.09,3.73.26,5.48.26,25.83,0,51.67.32,77.49-.08,27.29-.43,48.74,20.52,48.43,48.32-.62,54.66-.12,109.33-.29,164,0,4.58,1.15,6,5.79,6q87.24-.23,174.49-.11h5.92c.12-2.3.28-4.07.28-5.85,0-17,0-34,0-51,0-11.54,7.37-19.36,18.21-19.45s19,8,19.07,19.35c.11,17.5.07,35,0,52.5,0,2.82.18,4.49,3.77,4.89,16.71,1.87,27.74,11,33.11,26.94A17.91,17.91,0,0,0,1752,1349v53c-1,1.59-2.25,3.08-2.82,4.8a37.31,37.31,0,0,1-33.74,25.43c-5.33.19-10.67,0-16,0q-123.5,0-247,0c-19.18,0-33.46-11.18-38-29.74a25.5,25.5,0,0,1-.62-5.92q-.07-20.49,0-41c.06-18.73,13.58-34.52,32.15-36.7,5.35-.63,6.22-2.63,6.21-7.42q-.22-81.24-.09-162.49c0-8.4-3.4-11.87-11.69-11.88-27.17,0-54.33.09-81.5-.12-4.07,0-5.68,1.4-7.16,5-14.69,35.87-41.72,55.77-79.88,61a44.26,44.26,0,0,1-6,.16q-69.75,0-139.5,0a18,18,0,0,1-17.3-12c-2.71-8-.46-17,6.5-21.3a25.18,25.18,0,0,1,12.59-3.64c44.16-.26,88.33-.42,132.49-.07,25.66.21,53-15.93,59.16-48.5,1.93-10.19,1.39-20.91,1.5-31.39q.57-56,.77-111.94c.07-14,.26-28-.25-42-.48-13.25-.56-26.7-3-39.65-4.85-25.63-28.89-44.28-55-44.28q-130.5,0-261,0c-27.45,0-52.29,21.57-56.19,48.79a70.55,70.55,0,0,0-.32,10q.07,73,.17,146c0,20.15-.85,40.34.24,60.44,1.08,19.84,11.95,34.5,28.87,44.61a55.46,55.46,0,0,0,29,7.84c10.5,0,21,0,31.5,0,11.51,0,19.07,7.38,19.12,18.48s-7.39,18.52-18.91,18.57-23,.11-34.5,0c-38-.44-73.38-25.16-86.62-60.79-1.56-4.2-3.6-5.39-7.93-5.37q-67,.24-134,0c-3.79,0-5.46,1.33-7,4.62-10.38,21.88-27.75,33.8-52,33.95-24.09.15-41.62-11.37-52.1-33-2.1-4.33-4.41-5.58-9-5.57-62.83.15-125.67-.08-188.49.29-10.71.06-19.68-1.5-25.53-11.31v-14c5.06-9.51,13.13-12.26,23.59-12.21,62.8.29,125.61.15,188.41.16h5.89v-6q0-87,.11-173.92c0-4.84-1.32-6.07-6.09-6-63.14.16-126.28,0-189.41.26-10.28,0-17.76-3.09-22.5-12.26V888c6-10,15.37-11.3,26.13-11.24,63,.31,126,.15,189,.19,3.12,0,5.55-.05,7.14-3.71,9.93-22.86,28.09-34.71,52.46-34.78,24.66-.07,42.64,12.3,52.93,35,1.13,2.5,2.37,3.51,5.15,3.51q68.49-.07,137,.09c3.12,0,4.63-1,5.8-4,14.6-38.32,49.19-62.09,90.22-62.17,19.5,0,39-.08,58.5.06,3.94,0,5.59-.85,5.54-5.26q-.33-32,0-64c.05-4.09-1.7-5.07-5.07-5.55-23.84-3.4-39.65-16.73-47.58-39.27-1.38-3.91-3.13-4.86-7-4.85q-92.48.18-185,0a79.48,79.48,0,0,1-21.2-2.69,65.56,65.56,0,0,1-47-72.07,66.32,66.32,0,0,1,65.82-57.42q93.74,0,187.47.09c3.92,0,5.59-1,6.93-4.9,6.83-20,20.63-32.9,41.21-38.31,2.2-.58,4.4-1.14,6.6-1.71ZM771.41,1099.67H907.83V914.09H903c-42.14,0-84.27.08-126.41-.1-4.51,0-5.49,1.3-5.48,5.62q.21,87.43.1,174.87C771.16,1096.1,771.31,1097.73,771.41,1099.67Zm361.78-400h60c14.23,0,22.68-8.4,22.68-22.5V575.2c0-14.35-8.13-22.87-22.39-22.91q-60-.15-120,0c-14.49,0-22.94,8.67-23,23.11q0,50.48,0,101c0,14.81,8.46,23.31,23.18,23.31Zm218.29-102.72c-31.14,0-62.28,0-93.42-.07-3.58,0-4.89.76-4.83,4.72.26,15.65.1,31.31.09,47,0,6.38,0,6.38,6.56,6.38q90.42,0,180.86,0a65.19,65.19,0,0,0,8.94-.62c15.31-2.14,26.65-18.11,23.66-33.19A29.48,29.48,0,0,0,1443.91,597C1413.1,596.89,1382.29,596.94,1351.48,596.94Zm-436.3,0v0c-30.49,0-61-.09-91.46.1a35.36,35.36,0,0,0-12.61,2.32c-12.79,5.12-20.38,18.8-17.9,31.24,3,14.95,14.32,24.26,30.3,24.29,61.64.09,123.27,0,184.91.11,3.64,0,4.92-.94,4.87-4.77-.2-16-.27-32,0-48,.09-4.62-1.47-5.45-5.69-5.43C976.81,597,946,596.92,915.18,596.92Zm667.33,798q63.2,0,126.4.08c3.87,0,5.26-.9,5.13-5-.3-9.48-.34-19,0-28.47.18-4.79-1.21-6.22-6.08-6.2-39,.18-78,.09-116.92.08-44.8,0-89.6,0-134.4-.14-4.68,0-6,1.35-5.81,5.92.34,9.32.34,18.66,0,28-.17,4.54,1,5.91,5.75,5.89C1498.57,1394.89,1540.54,1395,1582.51,1395ZM694,1006.49q0,56,0,111.94a19.84,19.84,0,0,0,19.45,19.94c11.68.08,20.18-8.8,20.19-21.28q0-72.46,0-144.92c0-25.49.1-51,0-76.46-.06-11.62-9-20.05-20.47-19.89C702.56,876,694,885,694,896.05Zm466.28-269.22a14.57,14.57,0,0,0-2.36-.47c-16.14,0-32.27.05-48.41-.09-3.81,0-3.75,2.13-3.75,4.83,0,21.46.12,42.92-.07,64.38,0,4.13,1.47,5.07,5.25,5,14.64-.16,29.28-.26,43.91,0,4.79.1,5.89-1.59,5.86-6-.19-21-.09-41.92-.11-62.88C1160.62,740.49,1160.42,738.87,1160.31,737.27Z" transform="translate(-439 -515)"/><path d="M1571,1828c-10.85-2.34-22.13-3.49-32.48-7.23-52.39-19-83.86-55.86-93.76-111.07-5.33-29.71,3.23-56.21,17.07-81.74,20.56-37.92,47.86-70.78,77-102.23,7.81-8.43,15.86-16.63,24-24.76,11.35-11.34,27-12,38.29-.72,39.19,39,75.9,80,102.5,128.91,8.37,15.4,15.35,31.47,17.24,49.07,3.14,29.25-3.63,56.54-18.67,81.62-20.08,33.46-49.42,54.75-87.17,64.35-6.88,1.75-14,2.56-21,3.8Zm11.71-293.45c-1.51,1.42-2.65,2.37-3.64,3.45-12.34,13.54-25,26.82-36.91,40.7-18.94,22-35.85,45.43-49.35,71.23-9.32,17.79-14.32,36.16-10.85,56.55,8.1,47.59,52.81,85.11,101.13,84.32a102.67,102.67,0,0,0,96.86-73.12c3.85-12.79,6.27-26.12,2.68-39.23a160.26,160.26,0,0,0-11.9-30.52c-15.53-30.26-36.62-56.68-59-82.06C1602.35,1555.28,1592.51,1545.12,1582.71,1534.55Z" transform="translate(-439 -515)"/></svg>