<svg id="Layer_1" data-name="Layer 1" xmlns="http://www.w3.org/2000/svg" viewBox="0 0 813.03 1575.38"><defs><style>.cls-1{fill:#131313;}</style></defs><path d="M186,1198l.15-10.39c11-28.06,28.21-52.67,43.74-78.17,21.71-35.62,45.84-69.55,74.77-99.79,33-34.48,70.71-61.6,117.18-75.15,21-6.13,42.57-6.9,64.2-7.74,37.3-1.45,74.62-1.07,111.91-.58,25.22.32,50.58.15,75.3,7,32.8,9.16,61.17,25.81,85.69,49.26,27.3,26.11,47.58,57.27,65.09,90.44s31.47,68,45.44,102.72Q915.53,1290.3,961.66,1405q16.86,41.94,33.7,83.88c1.46,3.67,2.45,7.53,3.67,11.3l-.25,12.54c-1.36,3.82-2.39,7.8-4.25,11.36-8.66,16.67-22.65,24.59-41.29,23.18a41.7,41.7,0,0,1-35.32-26c-13.07-32.07-25.87-64.25-38.77-96.39Q829,1299.94,778.79,1175.11c-13.06-32.28-27.6-63.91-46.58-93.27-10.9-16.86-23.36-32.4-38.86-45.35-22.49-18.78-48.57-26.39-77.61-26.65-30.48-.26-61-.65-91.45-.35-21.29.2-42.62.12-63.83,2.49-17.86,2-34,8.86-49.31,17.93-24.84,14.74-45,34.8-63.17,56.93-27.6,33.58-49.87,70.73-71.75,108.13-1.25,2.13-.58,3.7.14,5.57q25.49,65.93,50.93,131.87c11.22,29,22.53,58,33.64,87.06,10.77,28.16-6.27,55.46-36.18,58.26-17.14,1.6-34.61-9.18-41.12-25.88q-24.86-63.74-49.4-127.59-21.53-55.66-43-111.35C189.33,1208,187.73,1203,186,1198Z" transform="translate(-186 -494.8)"/><path d="M713,2070c-.67-1.71-2.35-1.6-3.7-2.11-16.32-6.1-25.93-17.85-28.18-35-6.52-49.86-12.78-99.76-19.08-149.65q-10.89-86.22-21.68-172.47-10.43-82.27-21-164.53-10.11-79.51-20.13-159-7.14-56.7-14.18-113.41c-3-23.93-6.27-47.83-9-71.79-1.92-16.63,4-30.39,18-39.69s29.21-9.81,44.06-1.69c12.23,6.67,19,17.51,20.77,31.24,6.23,48.51,12.27,97.06,18.46,145.58q10.39,81.49,20.9,163c5.9,46.25,11.66,92.51,17.56,138.76,6.24,48.88,12.62,97.75,18.85,146.63q8.78,68.85,17.37,137.72c2.42,19.16,5,38.3,7.24,57.46.47,4,2.13,5.14,6.07,5.11,24.16-.19,48.32-.11,72.48-.14,20.83,0,39.14,16.31,41.25,36.82,2.25,21.85-11.37,41.63-31.86,46.21a11.91,11.91,0,0,1-2,.09c-1.75.8-3.61.4-5.41.4q-58.68,0-117.35,0c-1.79,0-3.66-.46-5.39.48Z" transform="translate(-186 -494.8)"/><path d="M778.34,638.79c-79-300-499.57-73.8-296.25,157.59C597.5,917.89,814,802.61,778.34,638.79Zm-78.6,40.39c-9.23,29.81-7.91,73.26-43.13,84.85C549,795.26,453,681.71,550.11,599.08c2.78-22.46,34.85-26.3,53.27-25.65,24.72.8,46,11.55,64.69,27.16C698.62,624.58,713.06,638.82,699.74,679.18ZM756,669" transform="translate(-186 -494.8)"/><path d="M365.8,2070.17l-1.71-.14c-1.87-2.23-4.79-2.07-7.18-3.13-20.78-9.25-30.53-31-23.21-53.15,9.28-28.12,19-56.11,28.48-84.17q51.29-151.26,102.58-302.53,10.33-30.46,20.78-60.91c6.18-17.9,22.27-28.91,41-28.26,19,.67,34,12.49,39,30.83a42.68,42.68,0,0,1-1.07,25.56q-29.93,88.41-59.79,176.85-35.4,104.72-70.82,209.42c-1,3,.74,5.47,3.92,5.47,16.49,0,33,0,49.46,0,20.46-.08,38.22,14.28,41.79,33.89a42.34,42.34,0,0,1-27.72,48c-1.41.49-3.13.41-4.11,1.79l-2.95.45c-1.44-1.06-3.07-.64-4.62-.64q-59.59,0-119.2,0C368.89,2069.52,367.25,2069.09,365.8,2070.17Z" transform="translate(-186 -494.8)"/><path class="cls-1" d="M366.06,2070c1.94-1.32,4.16-1,6.3-1q57.67,0,115.36,0c2.14,0,4.36-.31,6.31,1Z" transform="translate(-186 -494.8)"/><path class="cls-1" d="M717,2070a8.35,8.35,0,0,1,4.82-1l123.33.07a1.64,1.64,0,0,0-.18.92Z" transform="translate(-186 -494.8)"/></svg>