<svg xmlns="http://www.w3.org/2000/svg" viewBox="0 0 1349.31 1788.09"><defs><style>.cls-1{fill:#fff;}</style></defs><g id="Layer_2" data-name="Layer 2"><g id="Layer_1-2" data-name="Layer 1"><path class="cls-1" d="M368.87,1345.88c2.38,16.33,11.39,27.5,22.47,36.18,18.32,14.35,37.46,27.73,56.94,40.46,8.48,5.54,18.57,8.71,28.11,12.51,15.41,6.14,30.95,11.92,46.45,17.82,10.32,3.93,20.23,8.59,32,7.49,7.8-.73,15.84,1.54,23.8,2.17,19.58,1.55,38.78-1.53,58.07-4.46,29.58-4.49,57.82-13.71,86.14-22.83,5.68-1.82,11.52-3.2,17.34-4.51a66.17,66.17,0,0,0,31-16.13c18-16.6,36.68-32.54,53.41-50.32a138.59,138.59,0,0,0,25.51-37.38c3.6-7.94,9.31-14.91,14-22.35a75.75,75.75,0,0,0,4.79-8.14q15.86-33.63,31.53-67.34c5.13-11,11.25-21.66,15.1-33.09,11.54-34.3,23.72-68.51,32.77-103.5,9.65-37.29,18.15-75,22.12-113.54,1.84-17.87,4.19-35.69,6.45-53.52,3.76-29.63,6.73-59.48.24-88.87a612.54,612.54,0,0,0-20.38-70.4,222.57,222.57,0,0,0-49.91-81.08c-8.38-8.75-15.82-18.4-24.29-27.06-4.12-4.21-9.58-7.11-14.48-10.53-1.91-1.34-4.2-2.2-5.89-3.75-12.79-11.73-29-18.17-43-28.06-7.35-5.21-15.67-6.89-24.25-8-19.66-2.45-39.15,0-58.47,3.08-15.36,2.46-28.91,10.36-42.39,17.63C667.66,642.65,641.8,658,615.4,672.24c-17.95,9.72-32.4,23.69-47.47,36.93-25.85,22.69-45.29,51-66.54,77.62C472.78,822.71,457,864.73,445.88,908.5c-5.6,21.93-8.41,44.57-12.33,66.92-2.08,11.87-4.14,23.77-5.67,35.72a252.35,252.35,0,0,0-2.1,27.32c-.35,17.46-1.54,35.07.18,52.36s6.47,34.12,10.09,51.12a139.23,139.23,0,0,0,20.89,49.12c11.65,17.18,27,32,46.35,40,13.69,5.66,29,8.5,43.84,10,16.27,1.67,33.14,2.29,49.17-.24,11.45-1.81,22.5-8.66,32.74-14.89,18.68-11.37,33.62-27.13,47.21-44.15,17.73-22.21,35-44.71,49.81-69.06,4.56-7.5,10.35-14.23,15.49-21.39,10-14,17.78-29,22.34-45.81,4.07-15,10-29.5,14.82-44.32,2-6.15,2.68-12.72,4.78-18.82a166.8,166.8,0,0,1,9.69-23.4c3-5.67,7.83-10.3,15.16-9.48,8.28.92,13.42,6.06,16.11,13.67,4.54,12.85,5.63,25.86,4.4,39.62a417.38,417.38,0,0,1-12.26,70.1c-8.3,31.2-18.83,61.57-33.91,90.38-9,17.26-17.74,34.6-29.37,50.25-4,5.44-9,10.23-13.59,15.22-10,10.74-19.68,21.74-30.09,32-12.19,12.07-25.51,22.78-41.46,29.8-10.59,4.65-20.95,9.8-31.51,14.52-20.94,9.39-43,14.37-65.62,17.93-13.76,2.17-26.61,1.11-39.8-2.31-8.82-2.27-18-2.93-26.86-5.21-17.79-4.61-35.32-10.67-49.82-22.12-9.79-7.73-17.86-17.72-26.26-27.1-6.87-7.67-13.13-15.89-19.57-23.94-5.6-7-14.14-7.29-21.73-9.88-4.61-1.58-9.46-3.31-13.26-6.21-15-11.51-22.31-27.71-24.92-45.9-2.14-14.92-3.95-30-4.19-45.05-.43-27.43.63-54.87.67-82.31.07-38.16,7.58-75,18.59-111.34,6.51-21.46,13.32-42.84,19.14-64.49,8.91-33.11,21.49-64.64,39.42-93.82,16-26.09,32.68-51.82,49.69-77.28a397.72,397.72,0,0,1,27.59-36.07c6.63-7.8,14.75-14.33,22.19-21.45,12.76-12.2,25.06-24.93,38.37-36.5,17.93-15.58,38.4-27.47,59.53-38.27,14.81-7.56,29.63-15.15,44-23.48,28.71-16.62,59.6-25.91,92.36-30.22,15.12-2,30-5.7,45-8.86a379.25,379.25,0,0,1,94.61-8.33c24.9,1,49.46,3.32,73.64,9.32,11.73,2.91,22.76,7.25,32.18,15.27a66.53,66.53,0,0,0,12.66,7.93c11.42,5.93,22.33,12.4,31.76,21.41,18.65,17.8,38,34.75,54.64,54.71,26.88,32.35,47.15,68.44,63.36,107,9.08,21.59,18.21,43.19,26.4,65.13,12.07,32.33,19.43,66,26.2,99.76,3.23,16.1,7.39,32,10.36,48.16,2,11.1,2.34,22.51,4.2,33.65,2.13,12.77,5.13,25.39,7.75,38.07a418.3,418.3,0,0,1,8,64.85c.87,18.28,2.85,36.51,3.35,54.8.42,15.27-.36,30.6-1,45.89-.53,12.11-1.6,24.21-2.63,36.29-1.87,22-3.49,44-6,66a367.94,367.94,0,0,1-7,39.78c-6.33,27.67-13.22,55.21-20,82.78-4.47,18.26-9.32,36.43-13.48,54.76-1.19,5.24-.64,10.89-.75,16.36-.57,28.46-.07,57-2,85.38-1.54,23.21-5.91,46.38-18,66.89-10.14,17.22-23,32.26-41.13,41.74-21.35,11.15-40.09,26-59.17,40.53-15.06,11.45-30.86,21.93-46.26,33-7.89,5.65-16.75,4.54-25.47,3.84a51.32,51.32,0,0,1-12-2.93c-2.27-.75-4.83-1.93-6.24-3.72-9.81-12.44-15.14-26.62-11.46-42.33,1.89-8.07,6.27-15.8,10.64-23,11.82-19.49,24.29-38.59,36.38-57.92,3.09-4.93,5.82-10.08,8.55-15.21,4.93-9.25,9.4-18.76,14.68-27.8,10.6-18.15,16.47-38,22.79-57.86,8.75-27.52,19.36-54.44,28.65-81.8q9.55-28.15,17.61-56.82c7.37-26.44,14.59-53,20.76-79.68,3.68-15.94,5.29-32.36,7.72-48.58,1.78-11.94,3.84-23.87,4.91-35.87,1.2-13.41,1.81-26.9,2-40.36.3-24.32.18-48.65,0-73-.11-18,0-36-1.05-53.94-.54-9.67-3.12-19.23-4.89-28.82-2.56-13.91-6-27.7-7.7-41.71-5.76-46-14-91.36-30.15-135.07-4.13-11.18-5.76-23.26-9.52-34.6-3.7-11.16-8.5-22-13.08-32.81-9.73-23.08-21.33-45-37-64.77-12.81-16.13-24-33.58-35.8-50.48A154,154,0,0,0,936,588.75c-12.38-4.32-24.9-8.28-37.35-12.4a4.5,4.5,0,0,0-1.93-.46c-2.81.49-5.6,1.11-8.39,1.68,1.06,2.2,1.59,5,3.27,6.5,7.81,6.93,15.71,13.8,24,20.15,18.76,14.38,37.77,28.43,56.67,42.64,13.28,10,23.32,22.79,31.47,37.09,14.82,26,30.86,51.4,43.73,78.32,14,29.34,25,60.11,37.31,90.29,1.92,4.74,3.1,9.8,5.18,14.46,5.69,12.73,6.76,26.24,7.7,39.88.72,10.49,1.93,21-2.06,31-3.3,8.29-6.48,16.89-11.4,24.22-11.22,16.71-23.43,32.77-35.35,49-5.19,7.07-6.17,15.39-6.78,23.58-2.24,30.27-9.89,59.33-18.43,88.27-9.26,31.4-17.93,63-29.9,93.53-10.35,26.45-18.84,53.63-29.26,80-12.16,30.85-25.66,61.18-38.28,91.85-4.22,10.25-6.69,21.27-11.43,31.24-12.89,27.13-24.19,55-40,80.79-18.84,30.71-38.27,60.84-62.75,87.38A184.58,184.58,0,0,1,762.37,1626c-13.8,7.32-27.49,13.85-42.85,17.14-15.73,3.37-31.09,8.54-46.86,11.65-11.68,2.3-23.74,3-35.67,3.57-13.11.59-26.32.94-39.38-.06-12.55-1-25-3.85-37.44-5.78-6.71-1-13.53-1.52-20.18-2.86-11.06-2.24-22.16-4.49-33-7.63-11.44-3.31-22.64-7.5-33.84-11.61-20.61-7.58-41.52-14.51-61.59-23.33a395.42,395.42,0,0,1-63.75-35.53,552.3,552.3,0,0,1-58.93-45.87,309.34,309.34,0,0,1-39.14-42.61c-13.11-17.21-26.93-33.88-40.42-50.8-3.93-4.92-8.51-8.39-15.29-7.66-4.58.5-7.25,2.93-6.53,7.46a133.27,133.27,0,0,0,4.18,17.33c7.37,24.61,21.32,45.48,35.42,66.76,18.77,28.35,43.92,49.79,68.66,72,27.6,24.81,59.66,43.31,90,64.27A344.8,344.8,0,0,0,464,1692.7c25.42,9.26,51.71,14.67,79,15.08,9.65.15,19.37,2.32,28.87,4.39a251.39,251.39,0,0,0,78.28,4.2c21.94-2.15,42.64-9.25,63.36-16.36,19.18-6.59,37.08-15.33,53-28,2.44-1.93,5.42-3.22,8.23-4.65,31.26-15.9,61.13-34.25,88.76-55.71,21-16.28,38.72-36.26,51.09-60.12,13.47-26,27.19-52,38.77-78.83,8.91-20.67,15-42.61,21.79-64.14,10.3-32.46,20-65.12,30.33-97.56,4.13-12.93,9.37-25.5,14.2-38.21a302.5,302.5,0,0,0,17.88-77.21c2.24-22,5.2-43.88,8.69-65.68,2.91-18.12,11.67-33.66,22.87-48.21,8.07-10.48,23.82-16,34.43-12.65,11.52,3.6,19.59,14.32,21,28.92a186.48,186.48,0,0,1-.75,44.35c-1.12,8,.3,16.42-.94,24.41-4.18,27.12-9.32,54.09-13.55,81.2-3.32,21.2-5.45,42.6-8.81,63.79-3.94,24.92-7.15,50.1-13.43,74.45-6,23.08-15.32,45.3-23.52,67.77-5.31,14.53-11.7,28.68-16.81,43.27-15.21,43.4-37.44,82.62-67.66,117.38-15.49,17.82-29.3,37.18-47.34,52.64-9.71,8.32-20,16-30.29,23.59-18.16,13.47-36.1,27.29-54.86,39.88-23.28,15.64-50.26,23-76.52,31.84-32.3,10.91-65.67,16.55-99.32,20.88-33.45,4.3-67.06,6.16-100.69,3.25-24.33-2.11-48.54-5.61-72.82-8.32-11.74-1.31-23.66-1.46-35.25-3.54-17.31-3.11-34.41-7.41-51.57-11.33-5.34-1.22-10.65-2.65-15.87-4.31-8.65-2.75-17.28-5.57-25.79-8.7-11.25-4.12-22.57-8.12-33.49-13-8.62-3.85-16.7-8.92-25-13.52-10.47-5.8-20.73-12-31.38-17.41a87.33,87.33,0,0,1-23-17.25,253.4,253.4,0,0,0-22.27-19.9c-24.51-19.78-44.15-43.7-61.53-69.81a599,599,0,0,1-55.26-102.9c-12-29-20.52-59.31-31.56-88.68-9.7-25.81-13.87-52.29-14-79.68-.08-23.14-1.48-46.31-.69-69.4.81-23.56,2.81-47.15,5.69-70.55,4-32.42,8.59-64.8,14.27-97,4.66-26.44,9.72-52.85,18.19-78.55,5-15,7.34-30.87,10.34-46.45,5-25.91,12.36-51.13,20.58-76.16,11.46-34.91,22.49-70,34.2-104.79,3.75-11.15,9-21.79,13.63-32.66,4.4-10.41,9-20.72,13.15-31.24,10.42-26.68,21.08-53.21,35.2-78.24,10.54-18.69,19.11-38.55,32.47-55.56,15.63-19.9,31.25-39.82,47.46-59.23q26.58-31.83,54.26-62.73c18-20.22,38.09-38.16,61.1-52.71,11.09-7,21.78-14.67,32.55-22.18,16.35-11.39,34.58-19,52.77-26.82,59.49-25.51,121.5-43.25,184.13-58.7,28.5-7,57.84-10.6,86.73-16.09,22.53-4.28,45.3-4.38,68.06-4.78,20.38-.36,36.56,7.7,47.18,25.27,6.6,10.93,12.34,22.4,18.24,33.74a17.78,17.78,0,0,1,1.64,7.21c.35,7-3.48,11-10.51,10.89-9.15-.18-18.32-1.16-27.44-.8-12.77.52-25.51,1.84-38.24,3q-33.81,3.18-67.59,6.66a722,722,0,0,0-86.12,14.39,308.47,308.47,0,0,0-57.31,18.78c-30.11,13.37-60.17,26.92-89.81,41.29-45.22,21.94-84.8,52.1-121.3,86.33-17.37,16.29-34.32,33.1-50.52,50.54-7,7.56-11.95,17.15-17.35,26.11-7.82,13-14.88,26.4-22.82,39.29-33.46,54.28-59.88,112-83.94,170.88-8,19.67-16.85,39.09-23.7,59.17-9.52,27.93-14,57.11-18.31,86.26-2.37,16-6,31.74-8.06,47.74-1.68,13.17-1.85,26.54-2.69,39.83-1.53,24.25-3.3,48.49-4.49,72.76-.9,18.47-1.17,37-1.48,55.45-.22,13.17.41,26.36-.15,39.5-1,23.48.78,46.58,9.57,68.52,8.33,20.78,17.09,41.43,26.83,61.58a297,297,0,0,0,23.58,40.36c7.76,11.15,17.33,21.09,26.52,31.18,11.66,12.8,24.05,25,35.58,37.87,17.9,20.08,40.19,34.38,62.77,48.18,28.28,17.27,59.64,27.4,90.75,38.22a427.3,427.3,0,0,0,87.4,20.42c12.6,1.58,25.55.33,38.34.48,6.47.07,13,.21,19.41.66,29.84,2,59.6,1.2,88.23-7.82,15.25-4.81,29.44-13,44.09-19.67,2.57-1.18,4.93-2.95,7.59-3.79,10.1-3.21,14.29-11.3,17.38-20.38,2-5.82-.29-9.91-6-11.94a23.29,23.29,0,0,0-19.58,1.35,379.29,379.29,0,0,1-83.46,31c-4.92,1.21-10.21,1.07-15.34,1.3-13.13.56-26.27,1.58-39.38,1.23-8.23-.23-16.38-2.72-24.6-4-7.37-1.12-14.81-2.87-22.19-2.71-24.06.55-47-4.44-68.88-13.79-34.27-14.63-68.81-28.89-98.22-52.68-11.63-9.41-24.11-17.85-35-28a410.28,410.28,0,0,1-33.51-35.61c-15.38-18.16-30.65-36.5-44.63-55.74a165.71,165.71,0,0,1-20.13-36.68c-9.5-24.3-18.43-48.85-24.08-74.53a547.09,547.09,0,0,1-12.39-115.3c-.08-15.36,1.9-30.75,3.29-46.1s3.79-30.4,4.68-45.67c2.54-43.43,15.66-83.44,38.41-120.25C278.07,889.8,294,879.38,312.4,873c9.39-3.27,16.64,3.4,15.79,13.94-2.56,31.66-5.52,63.28-7.89,95-2.17,28.87-4.81,57.76-5.36,86.68-.61,32.45.09,65,1.72,97.4,1.6,31.67,10.77,61.57,26.66,89.15a48.54,48.54,0,0,0,22.7,20.81c22.56,10.13,45,20.59,67,31.87,10.59,5.42,20.14,12.9,30,19.66,10,6.88,20,13.3,32.54,15.38,13.27,2.2,26.15,7,39.44,8.71a269.16,269.16,0,0,0,47.28,2.27c14.16-.72,28.16-4.55,42.24-6.91,10.17-1.7,20.43-2.92,30.54-4.91,16-3.16,29.35-12.22,42.89-20.67,20.47-12.76,36-30,48.77-50.56,12-19.36,26.22-37.33,39.21-56.08a138.86,138.86,0,0,0,9.57-16.84c8.23-16.35,17-32.5,24.18-49.3,13-30.24,26.69-60.34,34.11-92.62,3.13-13.6,5-27.5,7.41-41.26a11.3,11.3,0,0,1,.43-2.45c6.87-15.46,5.24-31.61,3.5-47.64-2.61-24.14-5.28-48.31-8.88-72.32a253.78,253.78,0,0,0-9-38.31c-6.4-20.45-13.79-40.6-20.91-60.83-7.37-21-20.48-38.34-34.83-54.93-9.76-11.28-19.94-22-33.94-28.14-13.59-5.94-27.18-8.94-41.08-.65A24.7,24.7,0,0,1,706.7,713c-6.85.68-13.87,1.21-20.67.44s-10.92-6.18-11.54-13.19A41.39,41.39,0,0,1,683.16,670a84.86,84.86,0,0,1,47.43-31.36c21.31-5.33,43.21-3.76,62.4,9.4,16.3,11.18,33.61,21.36,48.19,34.53,27.44,24.79,51.43,52.52,63.22,88.94,5.4,16.7,12.88,32.72,19.45,49,14.51,36.06,19.52,73.62,18.8,112.32a467.51,467.51,0,0,1-8.4,81.89c-3.73,18.92-7.74,37.78-11.54,56.68-3.12,15.5-4.38,31.61-9.5,46.4-12.76,36.84-23.16,74.55-40.49,109.8-13.6,27.65-30.81,53-48.42,78-8.53,12.1-20,22.25-30.9,32.54-16.67,15.78-33.07,32.06-51.19,46-27.31,21.08-57.51,38-91.26,46.11-32.54,7.83-65.64,7.94-98.34-1.08-17.63-4.86-35.6-8.66-52.91-14.46-28.53-9.55-54.9-23.77-80-40.29-6.65-4.36-13.57-8.33-20.4-12.41-7.85-4.68-15.69-9.38-23.65-13.88C373.59,1347,371.13,1346.62,368.87,1345.88Z"/><path class="cls-1" d="M77.66,1040c-1.68,9.09-3.29,18.19-5.09,27.26-1,4.87-2.26,9.67-3.4,14.5A82.53,82.53,0,0,1,48,1119.68a42.8,42.8,0,0,1-33.85,12.9c-5.19-.35-7.54-4.62-8.78-8.5a105.81,105.81,0,0,1-4.89-22.16c-1.78-19.37,1.74-38.32,5.15-57.33,2.14-11.91,2.41-24.15,3.68-36.22,3.89-37,10.36-73.5,23.28-108.59,12-32.52,23-65.44,36.39-97.37,10.37-24.74,23.76-48.2,35.72-72.28,4.64-9.36,8.56-19.11,13.65-28.21q21.77-38.91,44.29-77.41c8.52-14.66,16.47-29.83,26.54-43.39,21.64-29.13,44.64-57.24,66.77-86C268,479.43,280.16,463.73,291,447.2c17.88-27.23,38.19-52.46,59.35-77.13,8.44-9.85,15.73-20.68,24.22-30.48a763.66,763.66,0,0,1,60.47-61.7c15.42-14.21,30.19-29.16,44.87-44.14,25-25.48,50.51-50.4,80.5-70C570.76,157,582.24,151.7,593.71,147c23.67-9.68,47.74-18.36,71.54-27.72,15.64-6.15,31.49-11.27,48.17-13.82,7.34-1.12,14.53-3.19,21.79-4.78,11-2.42,18.91,4.14,26.52,10.12a80.54,80.54,0,0,1,14.53,15.63c4.52,6.12,8.09,13,11.86,19.62,5.63,9.93,2.65,17.73-8.54,20.54a275,275,0,0,1-31.68,6c-18.56,2.39-36.26,7.43-53.71,14.11-14.05,5.38-28.67,9.28-43,13.87-5.2,1.65-10.36,3.41-15.55,5.06-21,6.68-42.11,13.3-63.13,20.05-5.21,1.67-10.39,3.49-15.41,5.63-10.31,4.4-17.81,17.13-17,28.3.29,3.86,4.06,5.86,8.8,4.19,8.12-2.88,16.1-6.15,24.19-9.11,39.36-14.41,78.69-28.94,118.16-43.09,17.18-6.16,34.43-12.32,52-17.05,20.63-5.54,41.63-10,63.3-7.68a23,23,0,0,1,8.42,2.84c16.55,9.29,31,20.95,38.51,39,2.61,6.27,3.44,13.43,4.13,20.27.2,2-2.37,5.26-4.49,6.36-5.82,3-12.12,3.42-18.84,2.9a252.14,252.14,0,0,0-32.41-.26c-49,2.5-96.72,12-143.37,26.85-17.89,5.69-35.49,12.41-53,19.22-25.88,10-51.51,20.73-77.36,30.86-12.38,4.86-25.08,8.92-37.5,13.69-6.5,2.49-13.1,5.11-19,8.78-25.53,16-51.71,31.13-75.88,49-19.82,14.64-39,30.54-54,50.84-14,19-29.84,36.67-44.11,55.49-17,22.4-33.57,45.07-48.26,69.15-11.85,19.44-25.57,37.73-38,56.82-7.71,11.83-14.61,24.19-21.84,36.33a32.73,32.73,0,0,0-2,4c-8.49,19.85-17.28,39.59-25.35,59.62-4.72,11.69-7.36,24.26-12.55,35.7-11.14,24.5-19.31,50.16-31.66,74.29-8.88,17.35-13.44,37.15-18.25,56.28C94,928.28,89.73,952.05,85,975.69c-2.68,13.51-5.15,27.08-7.15,40.7-1.14,7.71-1.15,15.58-1.67,23.38Z"/><path class="cls-1" d="M555.28,1036.94c-.48-26.29,5.45-51.18,16.78-74.79,8.13-16.93,17-33.5,24.92-50.53,9.12-19.62,17.12-39.75,26.41-59.27,5.91-12.42,11.77-25.37,20.35-35.88A418.09,418.09,0,0,1,688.16,770c12.32-11.07,28.18-13.72,44.92-10.73,13.95,2.49,26.72,7.37,35.36,18.67,12.21,16,22.86,32.56,25.5,53.73,3.43,27.58-2.32,53.28-11.13,78.82-12.81,37.11-23.54,75.12-42.35,109.79-17.3,31.86-33.42,64.65-56.05,93.2-18.6,23.48-38.34,46.21-62,64.92-17.95,14.2-38.55,22.1-61.64,22.43a196.46,196.46,0,0,1-23.39-1c-12.9-1.36-23.14-8.37-31.65-17.51s-17.39-18.61-24-29.23c-6.05-9.75-10.21-21-13.54-32-5.27-17.48-9.89-35.24-13.43-53.15-3.58-18.16-1.66-36.45,2-54.57,3.22-16,5.22-32.19,9-48,4.6-19,9.75-38,16.14-56.53,6.07-17.58,12.89-35.11,21.49-51.56a426.87,426.87,0,0,1,31.74-50.78c13-18.09,27.61-35,41.5-52.45,4.46-5.6,8.6-11.47,13.35-16.8,7-7.81,14.88-14.11,25.77-16.06,4.53-.81,8.21-.22,11.76,2.19,12.07,8.17,16.24,21.29,10.58,34.72-12.59,29.86-29.07,57.57-47.7,84a145.47,145.47,0,0,0-17.22,33.56c-13.32,35.74-26.63,71.55-34.44,108.91-4.83,23.07-6.77,46.74-10,70.14-1.81,12.91-.3,25.59,2.89,38.08a36.55,36.55,0,0,0,4.77,10.87c6.74,10.22,23.22,13.39,32.46,5.23,30.34-26.79,60.62-53.8,83.49-87.66A572,572,0,0,0,711,908.27c6.31-16.16,9.56-33.55,13.57-50.53,1.06-4.5,0-9.58-.53-14.36-.33-3.1-2.12-3.88-5.36-2.82-10.34,3.4-17,10.77-22.31,19.73-16.24,27.39-29.28,56.18-35.58,87.51-7.53,37.48-25.7,69.35-49.82,98.27-9.47,11.35-21.66,18.63-35.93,22.27-11.81,3-19.17-2.61-19.69-14.91C555.08,1047.94,555.28,1042.44,555.28,1036.94Z"/><path class="cls-1" d="M938.66,373.42c15.88-.74,27.05,8.11,38.2,17.83,19.7,17.18,31,39.66,40.84,63.05,2.51,5.95,2.49,12.53-3.24,17.38-6,5.09-12.3,9-20.85,5.66-14.35-5.6-28.68-11.31-43.31-16.12C933,455.52,914.94,456.1,897,457c-9.3.48-18.59,1.21-27.9,1.36-24.92.41-49.17,5.07-73.22,11.15-38.39,9.69-76.83,19.21-115.19,29-19.41,5-37.38,13.75-54.87,23.21-23.16,12.51-46.65,24.75-68.3,39.59-16.75,11.49-31.14,26.5-46.11,40.44a762.79,762.79,0,0,0-95.54,108C406,723.16,397,737.12,388,751.05c-4.58,7.07-7.74,15.08-12.58,21.94-13.44,19.06-31.26,33-52.66,42.21-7.83,3.36-15.59,1.38-23-2.05-2.25-1-4.42-2.24-6.62-3.38-5.47-2.85-7.3-9.86-4.27-17.12,4.15-10,8.17-20,12.77-29.74,15.2-32.21,30.1-64.57,46.15-96.34A289.26,289.26,0,0,1,396,598.24c15.43-16.33,29.67-33.81,45.42-49.82,10.46-10.62,22.49-19.72,34.08-29.18,32.7-26.66,69.23-47.26,106.73-66.13,11.31-5.69,23.93-8.81,36-13.06,14.57-5.14,29.18-10.16,43.73-15.35,24.68-8.79,50.26-13.86,75.85-19.07,31.71-6.45,63.22-13.92,94.94-20.36,13.16-2.68,26.62-4,40-5.58,16.5-1.92,33-3.47,49.57-5.09C927.71,374.06,933.19,373.8,938.66,373.42Z"/><path class="cls-1" d="M1346.65,1118.84c4.92,49.74,1.73,99.55.67,149.31-.34,15.57-2.78,31.19-5.31,46.61-4.83,29.34-9.26,58.84-16.13,87.73a192.12,192.12,0,0,1-21.45,53.39c-9.44,16-21.43,29.65-35,42a82.07,82.07,0,0,1-18.09,12.11c-6.25,3.2-12.65,2.52-18.34-2.66-8.16-7.43-10.55-16.65-9.51-27.12,2.56-25.66,7.1-50.93,14.71-75.62,5.92-19.22,11.55-38.53,17.3-57.8,7-23.54,9.75-47.79,12-72.14,2-21.69,4.12-43.39,6.93-65,3.46-26.55,3.12-53.15,2.34-79.79-.44-14.82-.26-29.69-1.56-44.44-1.8-20.34-4.83-40.57-7.15-60.88-2-17.51-3.74-35-5.6-52.57-1.1-10.41-1.3-21-3.51-31.19-5.34-24.62-11.62-49-17.5-73.53-2.45-10.19-4.37-20.53-7.38-30.55-2.85-9.49-6.78-18.66-10.31-27.94-7.55-19.82-15.22-39.59-22.69-59.44-3.72-9.88-6.94-20-10.76-29.78-1.48-3.81-4-7.19-6.06-10.79-8.91-15.81-14.32-32.67-14.84-50.91-.18-6.4,5.22-10.05,11.08-7.48a19.11,19.11,0,0,1,5.59,4c12.33,12.28,21.33,26.87,29.07,42.31,14.23,28.38,28.64,56.68,42.64,85.18,11.6,23.62,22.81,47.43,34,71.26,2.17,4.63,3.39,9.73,4.9,14.66q9.51,31.29,18.94,62.62c4.91,16.25,10.1,32.42,14.65,48.76,5.57,20,7.74,40.46,9.34,61.09,1.66,21.39,4.21,42.72,6.26,64.09C1346.37,1109.17,1346.41,1114,1346.65,1118.84Z"/><path class="cls-1" d="M724.82,63.09c.23,10.06-5.8,15.3-13.93,18.34-10.88,4.06-22,7.43-33.06,11.09-4.72,1.58-9.53,2.92-14.15,4.77-12.49,5-24.92,10.18-37.35,15.37a86.29,86.29,0,0,0-9.9,4.71c-12.35,7.16-24.55,14.59-37,21.61-2.29,1.29-7.09,2.36-7.82,1.37-1.84-2.47-3.22-6.42-2.64-9.36,2.48-12.52,8.91-23.36,17.32-32.7,9.65-10.73,20.28-20.58,30.22-31.07,15-15.82,29.55-32,41.16-50.66A53,53,0,0,1,669,3.64c6.31-5.12,11.16-5,16.39,1.38,12.92,15.76,27.42,30.44,36.2,49.24C722.94,57.09,723.76,60.14,724.82,63.09Z"/></g></g></svg>