<?xml version="1.0" encoding="utf-8"?>
<!-- Generator: Adobe Illustrator 25.2.1, SVG Export Plug-In . SVG Version: 6.00 Build 0)  -->
<svg version="1.1" id="Layer_1" xmlns="http://www.w3.org/2000/svg" xmlns:xlink="http://www.w3.org/1999/xlink" x="0px" y="0px"
	 viewBox="0 0 1350 1789" style="enable-background:new 0 0 1350 1789;" xml:space="preserve">
<style type="text/css">
	.st0{clip-path:url(#SVGID_2_);}
	.st1{opacity:0.65;fill:#1FD6FF;}
</style>
<g>
	<g>
		<defs>
			<rect id="SVGID_1_" width="1349.3" height="1788.1"/>
		</defs>
		<clipPath id="SVGID_2_">
			<use xlink:href="#SVGID_1_"  style="overflow:visible;"/>
		</clipPath>
		<g class="st0">
			<path class="st1" d="M980.4,442.2c-2.4-16.3-11.4-27.5-22.5-36.2c-18.3-14.4-37.5-27.7-56.9-40.5c-8.5-5.5-18.6-8.7-28.1-12.5
				c-15.4-6.1-31-11.9-46.5-17.8c-10.3-3.9-20.2-8.6-32-7.5c-7.8,0.7-15.8-1.5-23.8-2.2c-19.6-1.6-38.8,1.5-58.1,4.5
				c-29.6,4.5-57.8,13.7-86.1,22.8c-5.7,1.8-11.5,3.2-17.3,4.5c-11.6,2.5-22.3,8.1-31,16.1c-18,16.6-36.7,32.5-53.4,50.3
				c-10.5,11-19.1,23.6-25.5,37.4c-3.6,7.9-9.3,14.9-14,22.3c-1.8,2.6-3.4,5.3-4.8,8.1c-10.6,22.4-21.1,44.9-31.5,67.3
				c-5.1,11-11.2,21.7-15.1,33.1c-11.5,34.3-23.7,68.5-32.8,103.5c-9.6,37.3-18.1,75-22.1,113.5c-1.8,17.9-4.2,35.7-6.4,53.5
				c-3.8,29.6-6.7,59.5-0.2,88.9c5.4,23.9,12.2,47.4,20.4,70.4c10.6,30.3,27.6,58,49.9,81.1c8.4,8.8,15.8,18.4,24.3,27.1
				c4.1,4.2,9.6,7.1,14.5,10.5c1.9,1.3,4.2,2.2,5.9,3.8c12.8,11.7,29,18.2,43,28.1c7.3,5.2,15.7,6.9,24.2,8
				c19.7,2.5,39.2,0,58.5-3.1c15.4-2.5,28.9-10.4,42.4-17.6c26.4-14.3,52.2-29.6,78.7-43.9c18-9.7,32.4-23.7,47.5-36.9
				c25.9-22.7,45.3-51,66.5-77.6c28.6-35.9,44.4-77.9,55.5-121.7c5.6-21.9,8.4-44.6,12.3-66.9c2.1-11.9,4.1-23.8,5.7-35.7
				c1.2-9.1,1.9-18.2,2.1-27.3c0.3-17.5,1.5-35.1-0.2-52.4c-1.7-17.3-6.5-34.1-10.1-51.1c-3.7-17.6-10.8-34.2-20.9-49.1
				c-11.6-17.2-27-32-46.3-40c-13.7-5.7-29-8.5-43.8-10c-16.3-1.7-33.1-2.3-49.2,0.2c-11.5,1.8-22.5,8.7-32.7,14.9
				c-18.7,11.4-33.6,27.1-47.2,44.2c-17.7,22.2-35,44.7-49.8,69.1c-4.6,7.5-10.3,14.2-15.5,21.4c-10,14-17.8,29-22.3,45.8
				c-4.1,15-10,29.5-14.8,44.3c-2,6.2-2.7,12.7-4.8,18.8c-2.6,8-5.9,15.9-9.7,23.4c-3,5.7-7.8,10.3-15.2,9.5
				c-8.3-0.9-13.4-6.1-16.1-13.7c-4.5-12.9-5.6-25.9-4.4-39.6c2.1-23.7,6.2-47.1,12.3-70.1c8.3-31.2,18.8-61.6,33.9-90.4
				c9-17.3,17.7-34.6,29.4-50.2c4-5.4,9-10.2,13.6-15.2c10-10.7,19.7-21.7,30.1-32c12.2-12.1,25.5-22.8,41.5-29.8
				c10.6-4.7,21-9.8,31.5-14.5c20.9-9.4,43-14.4,65.6-17.9c13.8-2.2,26.6-1.1,39.8,2.3c8.8,2.3,18,2.9,26.9,5.2
				c17.8,4.6,35.3,10.7,49.8,22.1c9.8,7.7,17.9,17.7,26.3,27.1c6.9,7.7,13.1,15.9,19.6,23.9c5.6,7,14.1,7.3,21.7,9.9
				c4.6,1.6,9.5,3.3,13.3,6.2c15,11.5,22.3,27.7,24.9,45.9c2.1,14.9,4,30,4.2,45c0.4,27.4-0.6,54.9-0.7,82.3
				c-0.1,38.2-7.6,75-18.6,111.3c-6.5,21.5-13.3,42.8-19.1,64.5c-8.9,33.1-21.5,64.6-39.4,93.8c-16,26.1-32.7,51.8-49.7,77.3
				c-8.5,12.5-17.7,24.6-27.6,36.1c-6.6,7.8-14.8,14.3-22.2,21.4c-12.8,12.2-25.1,24.9-38.4,36.5c-17.9,15.6-38.4,27.5-59.5,38.3
				c-14.8,7.6-29.6,15.2-44,23.5c-28.7,16.6-59.6,25.9-92.4,30.2c-15.1,2-30,5.7-45,8.9c-31.1,6.7-62.8,9.5-94.6,8.3
				c-24.9-1-49.5-3.3-73.6-9.3c-11.7-2.9-22.8-7.2-32.2-15.3c-3.9-3.1-8.2-5.8-12.7-7.9c-11.4-5.9-22.3-12.4-31.8-21.4
				c-18.6-17.8-38-34.8-54.6-54.7c-26.9-32.3-47.2-68.4-63.4-107c-9.1-21.6-18.2-43.2-26.4-65.1c-12.1-32.3-19.4-66-26.2-99.8
				c-3.2-16.1-7.4-32-10.4-48.2c-2-11.1-2.3-22.5-4.2-33.7c-2.1-12.8-5.1-25.4-7.8-38.1c-4.4-21.4-7-43.1-8-64.8
				c-0.9-18.3-2.9-36.5-3.4-54.8c-0.4-15.3,0.4-30.6,1-45.9c0.5-12.1,1.6-24.2,2.6-36.3c1.9-22,3.5-44,6-66
				c1.6-13.4,3.9-26.7,7-39.8c6.3-27.7,13.2-55.2,20-82.8c4.5-18.3,9.3-36.4,13.5-54.8c1.2-5.2,0.6-10.9,0.8-16.4
				c0.6-28.5,0.1-57,2-85.4c1.5-23.2,5.9-46.4,18-66.9c10.1-17.2,23-32.3,41.1-41.7c21.3-11.2,40.1-26,59.2-40.5
				c15.1-11.4,30.9-21.9,46.3-33c7.9-5.7,16.8-4.5,25.5-3.8c4.1,0.5,8.1,1.5,12,2.9c2.3,0.8,4.8,1.9,6.2,3.7
				c9.8,12.4,15.1,26.6,11.5,42.3c-1.9,8.1-6.3,15.8-10.6,23c-11.8,19.5-24.3,38.6-36.4,57.9c-3.1,4.9-5.8,10.1-8.6,15.2
				c-4.9,9.2-9.4,18.8-14.7,27.8c-10.6,18.1-16.5,38-22.8,57.9c-8.8,27.5-19.4,54.4-28.7,81.8c-6.4,18.8-12.2,37.7-17.6,56.8
				c-7.4,26.4-14.6,53-20.8,79.7c-3.7,15.9-5.3,32.4-7.7,48.6c-1.8,11.9-3.8,23.9-4.9,35.9c-1.2,13.4-1.8,26.9-2,40.4
				c-0.3,24.3-0.2,48.7,0,73c0.1,18,0,36,1,53.9c0.5,9.7,3.1,19.2,4.9,28.8c2.6,13.9,6,27.7,7.7,41.7c5.8,46,14,91.4,30.1,135.1
				c4.1,11.2,5.8,23.3,9.5,34.6c3.7,11.2,8.5,22,13.1,32.8c9.7,23.1,21.3,45,37,64.8c12.8,16.1,24,33.6,35.8,50.5
				c18.8,27.2,45.9,47.7,77.2,58.3c12.4,4.3,24.9,8.3,37.4,12.4c0.6,0.3,1.3,0.4,1.9,0.5c2.8-0.5,5.6-1.1,8.4-1.7
				c-1.1-2.2-1.6-5-3.3-6.5c-7.8-6.9-15.7-13.8-24-20.2c-18.8-14.4-37.8-28.4-56.7-42.6c-13.3-10-23.3-22.8-31.5-37.1
				c-14.8-26-30.9-51.4-43.7-78.3c-14-29.3-25-60.1-37.3-90.3c-1.9-4.7-3.1-9.8-5.2-14.5c-5.7-12.7-6.8-26.2-7.7-39.9
				c-0.7-10.5-1.9-21,2.1-31c3.3-8.3,6.5-16.9,11.4-24.2c11.2-16.7,23.4-32.8,35.4-49c5.2-7.1,6.2-15.4,6.8-23.6
				c2.2-30.3,9.9-59.3,18.4-88.3c9.3-31.4,17.9-63,29.9-93.5c10.3-26.5,18.8-53.6,29.3-80c12.2-30.8,25.7-61.2,38.3-91.8
				c4.2-10.2,6.7-21.3,11.4-31.2c12.9-27.1,24.2-55,40-80.8c18.8-30.7,38.3-60.8,62.8-87.4c14.2-15.5,31-28.4,49.6-38.2
				c13.8-7.3,27.5-13.9,42.9-17.1c15.7-3.4,31.1-8.5,46.9-11.7c11.7-2.3,23.7-3,35.7-3.6c13.1-0.6,26.3-0.9,39.4,0.1
				c12.5,1,25,3.9,37.4,5.8c6.7,1,13.5,1.5,20.2,2.9c11.1,2.2,22.2,4.5,33,7.6c11.4,3.3,22.6,7.5,33.8,11.6
				c20.6,7.6,41.5,14.5,61.6,23.3c22.3,9.9,43.6,21.7,63.7,35.5c20.7,13.9,40.3,29.3,58.9,45.9c14.3,13,27.4,27.2,39.1,42.6
				c13.1,17.2,26.9,33.9,40.4,50.8c3.9,4.9,8.5,8.4,15.3,7.7c4.6-0.5,7.2-2.9,6.5-7.5c-1-5.9-2.4-11.7-4.2-17.3
				c-7.4-24.6-21.3-45.5-35.4-66.8c-18.8-28.4-43.9-49.8-68.7-72c-27.6-24.8-59.7-43.3-90-64.3c-24.3-16.7-50.5-30.2-78.2-40.3
				c-25.4-9.3-51.7-14.7-79-15.1c-9.6-0.2-19.4-2.3-28.9-4.4c-25.7-5.5-52.1-6.9-78.3-4.2c-21.9,2.2-42.6,9.2-63.4,16.4
				c-19.2,6.6-37.1,15.3-53,28c-2.4,1.9-5.4,3.2-8.2,4.6c-31.3,15.9-61.1,34.3-88.8,55.7c-21,16.3-38.7,36.3-51.1,60.1
				c-13.5,26-27.2,52-38.8,78.8c-8.9,20.7-15,42.6-21.8,64.1c-10.3,32.5-20,65.1-30.3,97.6c-4.1,12.9-9.4,25.5-14.2,38.2
				c-9.3,24.8-15.3,50.8-17.9,77.2c-2.2,22-5.2,43.9-8.7,65.7c-2.9,18.1-11.7,33.7-22.9,48.2c-8.1,10.5-23.8,16-34.4,12.7
				c-11.5-3.6-19.6-14.3-21-28.9c-1.5-14.8-1.3-29.6,0.8-44.4c1.1-8-0.3-16.4,0.9-24.4c4.2-27.1,9.3-54.1,13.6-81.2
				c3.3-21.2,5.4-42.6,8.8-63.8c3.9-24.9,7.1-50.1,13.4-74.5c6-23.1,15.3-45.3,23.5-67.8c5.3-14.5,11.7-28.7,16.8-43.3
				c15.2-43.4,37.4-82.6,67.7-117.4c15.5-17.8,29.3-37.2,47.3-52.6c9.7-8.3,20-16,30.3-23.6C466,83.8,484,70,502.7,57.4
				c23.3-15.6,50.3-23,76.5-31.8c32.3-11,65.7-16.6,99.4-20.9c33.5-4.3,67.1-6.2,100.7-3.2c24.3,2.1,48.5,5.6,72.8,8.3
				c11.7,1.3,23.7,1.5,35.2,3.5c17.3,3.1,34.4,7.4,51.6,11.3c5.3,1.2,10.7,2.6,15.9,4.3c8.7,2.8,17.3,5.6,25.8,8.7
				c11.2,4.1,22.6,8.1,33.5,13c8.6,3.9,16.7,8.9,25,13.5c10.5,5.8,20.7,12,31.4,17.4c8.6,4.4,16.3,10.3,23,17.2
				c7,7.1,14.5,13.7,22.3,19.9c24.5,19.8,44.2,43.7,61.5,69.8c21.7,32.4,40.2,66.9,55.3,102.9c12,29,20.5,59.3,31.6,88.7
				c9.7,25.8,13.9,52.3,14,79.7c0.1,23.1,1.5,46.3,0.7,69.4c-0.8,23.6-2.8,47.1-5.7,70.5c-4,32.4-8.6,64.8-14.3,97
				c-4.7,26.4-9.7,52.8-18.2,78.5c-5,15-7.3,30.9-10.3,46.5c-5,25.9-12.4,51.1-20.6,76.2c-11.5,34.9-22.5,70-34.2,104.8
				c-3.8,11.2-9,21.8-13.6,32.7c-4.4,10.4-9,20.7-13.1,31.2c-10.4,26.7-21.1,53.2-35.2,78.2c-10.5,18.7-19.1,38.6-32.5,55.6
				c-15.6,19.9-31.2,39.8-47.5,59.2c-17.7,21.2-35.8,42.1-54.3,62.7c-18,20.2-38.1,38.2-61.1,52.7c-11.1,7-21.8,14.7-32.5,22.2
				c-16.3,11.4-34.6,19-52.8,26.8c-59.5,25.5-121.5,43.2-184.1,58.7c-28.5,7-57.8,10.6-86.7,16.1c-22.5,4.3-45.3,4.4-68.1,4.8
				c-20.4,0.4-36.6-7.7-47.2-25.3c-6.6-10.9-12.3-22.4-18.2-33.7c-1-2.3-1.6-4.7-1.6-7.2c-0.4-7,3.5-11,10.5-10.9
				c9.1,0.2,18.3,1.2,27.4,0.8c12.8-0.5,25.5-1.8,38.2-3c22.5-2.1,45.1-4.3,67.6-6.7c29-3.1,57.7-7.9,86.1-14.4
				c19.7-4.4,38.9-10.7,57.3-18.8c30.1-13.4,60.2-26.9,89.8-41.3c45.2-21.9,84.8-52.1,121.3-86.3c17.4-16.3,34.3-33.1,50.5-50.5
				c7-7.6,12-17.1,17.3-26.1c7.8-13,14.9-26.4,22.8-39.3c33.5-54.3,59.9-112,83.9-170.9c8-19.7,16.8-39.1,23.7-59.2
				c9.5-27.9,14-57.1,18.3-86.3c2.4-16,6-31.7,8.1-47.7c1.7-13.2,1.8-26.5,2.7-39.8c1.5-24.2,3.3-48.5,4.5-72.8
				c0.9-18.5,1.2-37,1.5-55.5c0.2-13.2-0.4-26.4,0.2-39.5c1-23.5-0.8-46.6-9.6-68.5c-8.3-20.8-17.1-41.4-26.8-61.6
				c-6.8-14.1-14.7-27.5-23.6-40.4c-7.8-11.1-17.3-21.1-26.5-31.2c-11.7-12.8-24-25-35.6-37.9c-17.9-20.1-40.2-34.4-62.8-48.2
				c-28.3-17.3-59.6-27.4-90.8-38.2c-28.3-9.9-57.6-16.7-87.4-20.4c-12.6-1.6-25.5-0.3-38.3-0.5c-6.5-0.1-13-0.2-19.4-0.7
				c-29.8-2-59.6-1.2-88.2,7.8c-15.2,4.8-29.4,13-44.1,19.7c-2.6,1.2-4.9,2.9-7.6,3.8c-10.1,3.2-14.3,11.3-17.4,20.4
				c-2,5.8,0.3,9.9,6,11.9c3.2,1.2,6.6,1.7,9.9,1.5c3.4-0.2,6.7-1.2,9.6-2.8c26.5-13.6,54.5-24,83.5-31c4.9-1.2,10.2-1.1,15.3-1.3
				c13.1-0.6,26.3-1.6,39.4-1.2c8.2,0.2,16.4,2.7,24.6,4c7.4,1.1,14.8,2.9,22.2,2.7c24.1-0.5,47,4.4,68.9,13.8
				c34.3,14.6,68.8,28.9,98.2,52.7c11.6,9.4,24.1,17.9,35,28c11.9,11.2,23.1,23.1,33.5,35.6c15.4,18.2,30.7,36.5,44.6,55.7
				c8.2,11.3,15,23.7,20.1,36.7c9.5,24.3,18.4,48.8,24.1,74.5c8.2,37.9,12.4,76.5,12.4,115.3c0.1,15.4-1.9,30.8-3.3,46.1
				s-3.8,30.4-4.7,45.7c-2.5,43.4-15.7,83.4-38.4,120.2c-10.4,16.7-26.4,27.1-44.8,33.5c-9.4,3.3-16.6-3.4-15.8-13.9
				c2.6-31.7,5.5-63.3,7.9-95c2.2-28.9,4.8-57.8,5.4-86.7c0.6-32.5-0.1-65-1.7-97.4c-1.6-31.7-10.8-61.6-26.7-89.1
				c-5.1-9.2-13.1-16.5-22.7-20.8c-22.6-10.1-45-20.6-67-31.9c-10.6-5.4-20.1-12.9-30-19.7c-10-6.9-20-13.3-32.5-15.4
				c-13.3-2.2-26.1-7-39.4-8.7c-15.7-2.1-31.5-2.9-47.3-2.3c-14.2,0.7-28.2,4.6-42.2,6.9c-10.2,1.7-20.4,2.9-30.5,4.9
				c-16,3.2-29.3,12.2-42.9,20.7c-20.5,12.8-36,30-48.8,50.6c-12,19.4-26.2,37.3-39.2,56.1c-3.6,5.4-6.8,11-9.6,16.8
				c-8.2,16.3-17,32.5-24.2,49.3c-13,30.2-26.7,60.3-34.1,92.6c-3.1,13.6-5,27.5-7.4,41.3c-0.1,0.8-0.2,1.7-0.4,2.4
				c-6.9,15.5-5.2,31.6-3.5,47.6c2.6,24.1,5.3,48.3,8.9,72.3c2,13,5,25.8,9,38.3c6.4,20.5,13.8,40.6,20.9,60.8
				c7.4,21,20.5,38.3,34.8,54.9c9.8,11.3,19.9,22,33.9,28.1c13.6,5.9,27.2,8.9,41.1,0.7c3-1.9,6.3-3.1,9.8-3.6
				c6.8-0.7,13.9-1.2,20.7-0.4s10.9,6.2,11.5,13.2c1.2,10.8-1.9,21.7-8.7,30.2c-11.7,15.6-28.5,26.7-47.4,31.4
				c-21.3,5.3-43.2,3.8-62.4-9.4c-16.3-11.2-33.6-21.4-48.2-34.5c-27.4-24.8-51.4-52.5-63.2-88.9c-5.4-16.7-12.9-32.7-19.5-49
				c-14.5-36.1-19.5-73.6-18.8-112.3c0.4-27.5,3.2-54.9,8.4-81.9c3.7-18.9,7.7-37.8,11.5-56.7c3.1-15.5,4.4-31.6,9.5-46.4
				c12.8-36.8,23.2-74.5,40.5-109.8c13.6-27.7,30.8-53,48.4-78c8.5-12.1,20-22.2,30.9-32.5c16.7-15.8,33.1-32.1,51.2-46
				c27.3-21.1,57.5-38,91.3-46.1c32.5-7.8,65.6-7.9,98.3,1.1c17.6,4.9,35.6,8.7,52.9,14.5c28.5,9.5,54.9,23.8,80,40.3
				c6.6,4.4,13.6,8.3,20.4,12.4c7.9,4.7,15.7,9.4,23.7,13.9C975.7,441.1,978.2,441.5,980.4,442.2z"/>
			<path class="st1" d="M1271.7,748.1c1.7-9.1,3.3-18.2,5.1-27.3c1-4.9,2.3-9.7,3.4-14.5c3.5-14.3,10.9-27.4,21.2-37.9
				c4.4-4.5,9.6-8,15.5-10.2c5.8-2.2,12.1-3.1,18.4-2.7c5.2,0.3,7.5,4.6,8.8,8.5c2.4,7.2,4.1,14.6,4.9,22.2
				c1.8,19.4-1.7,38.3-5.1,57.3c-2.1,11.9-2.4,24.2-3.7,36.2c-3.9,37-10.4,73.5-23.3,108.6c-12,32.5-23,65.4-36.4,97.4
				c-10.4,24.7-23.8,48.2-35.7,72.3c-4.6,9.4-8.6,19.1-13.7,28.2c-14.5,25.9-29.3,51.7-44.3,77.4c-8.5,14.7-16.5,29.8-26.5,43.4
				c-21.6,29.1-44.6,57.2-66.8,86c-12,15.7-24.2,31.4-35,47.9c-17.9,27.2-38.2,52.5-59.3,77.1c-8.4,9.8-15.7,20.7-24.2,30.5
				c-19,21.7-39.2,42.3-60.5,61.7c-15.4,14.2-30.2,29.2-44.9,44.1c-25,25.5-50.5,50.4-80.5,70c-10.3,6.8-21.8,12.1-33.3,16.8
				c-23.7,9.7-47.7,18.4-71.5,27.7c-15.6,6.1-31.5,11.3-48.2,13.8c-7.3,1.1-14.5,3.2-21.8,4.8c-11,2.4-18.9-4.1-26.5-10.1
				c-5.5-4.5-10.4-9.8-14.5-15.6c-4.5-6.1-8.1-13-11.9-19.6c-5.6-9.9-2.6-17.7,8.5-20.5c10.4-2.6,21-4.6,31.7-6
				c18.6-2.4,36.3-7.4,53.7-14.1c14.1-5.4,28.7-9.3,43-13.9c5.2-1.7,10.4-3.4,15.6-5.1c21-6.7,42.1-13.3,63.1-20
				c5.2-1.7,10.4-3.5,15.4-5.6c10.3-4.4,17.8-17.1,17-28.3c-0.3-3.9-4.1-5.9-8.8-4.2c-8.1,2.9-16.1,6.1-24.2,9.1
				c-39.4,14.4-78.7,28.9-118.2,43.1c-17.2,6.2-34.4,12.3-52,17.1c-20.6,5.5-41.6,10-63.3,7.7c-3-0.4-5.8-1.4-8.4-2.8
				c-16.5-9.3-31-20.9-38.5-39c-2.6-6.3-3.4-13.4-4.1-20.3c-0.2-2,2.4-5.3,4.5-6.4c5.8-3,12.1-3.4,18.8-2.9
				c10.8,0.8,21.6,0.9,32.4,0.3c49-2.5,96.7-12,143.4-26.8c17.9-5.7,35.5-12.4,53-19.2c25.9-10,51.5-20.7,77.4-30.9
				c12.4-4.9,25.1-8.9,37.5-13.7c6.5-2.5,13.1-5.1,19-8.8c25.5-16,51.7-31.1,75.9-49c19.8-14.6,39-30.5,54-50.8
				c14-19,29.8-36.7,44.1-55.5c17-22.4,33.6-45.1,48.3-69.2c11.8-19.4,25.6-37.7,38-56.8c7.7-11.8,14.6-24.2,21.8-36.3
				c0.8-1.3,1.4-2.6,2-4c8.5-19.8,17.3-39.6,25.3-59.6c4.7-11.7,7.4-24.3,12.6-35.7c11.1-24.5,19.3-50.2,31.7-74.3
				c8.9-17.4,13.4-37.2,18.2-56.3c5.7-23.4,10-47.1,14.7-70.8c2.7-13.5,5.1-27.1,7.1-40.7c1.1-7.7,1.2-15.6,1.7-23.4L1271.7,748.1z"
				/>
			<path class="st1" d="M794,751.1c0.5,26.3-5.5,51.2-16.8,74.8c-8.1,16.9-17,33.5-24.9,50.5c-9.1,19.6-17.1,39.8-26.4,59.3
				c-5.9,12.4-11.8,25.4-20.4,35.9c-13.6,16.6-28.4,32.1-44.4,46.5c-12.3,11.1-28.2,13.7-44.9,10.7c-14-2.5-26.7-7.4-35.4-18.7
				c-12.2-16-22.9-32.6-25.5-53.7c-3.4-27.6,2.3-53.3,11.1-78.8c12.8-37.1,23.5-75.1,42.4-109.8c17.3-31.9,33.4-64.6,56-93.2
				c18.6-23.5,38.3-46.2,62-64.9c18-14.2,38.5-22.1,61.6-22.4c7.8-0.1,15.6,0.2,23.4,1c12.9,1.4,23.1,8.4,31.6,17.5
				s17.4,18.6,24,29.2c6,9.8,10.2,21,13.5,32c5.3,17.5,9.9,35.2,13.4,53.2c3.6,18.2,1.7,36.5-2,54.6c-3.2,16-5.2,32.2-9,48
				c-4.6,19-9.8,38-16.1,56.5c-6.1,17.6-12.9,35.1-21.5,51.6c-9.4,17.6-20,34.6-31.7,50.8c-13,18.1-27.6,35-41.5,52.5
				c-4.5,5.6-8.6,11.5-13.4,16.8c-7,7.8-14.9,14.1-25.8,16.1c-4.5,0.8-8.2,0.2-11.8-2.2c-12.1-8.2-16.2-21.3-10.6-34.7
				c12.6-29.9,29.1-57.6,47.7-84c7.2-10.4,13-21.7,17.2-33.6c13.3-35.7,26.6-71.5,34.4-108.9c4.8-23.1,6.8-46.7,10-70.1
				c1.8-12.9,0.3-25.6-2.9-38.1c-1-3.9-2.6-7.5-4.8-10.9c-6.7-10.2-23.2-13.4-32.5-5.2c-29.9,26.6-60.2,53.6-83,87.5
				c-23.7,35.4-43.4,73.2-58.7,113c-6.3,16.2-9.6,33.5-13.6,50.5c-1.1,4.5,0,9.6,0.5,14.4c0.3,3.1,2.1,3.9,5.4,2.8
				c10.3-3.4,17-10.8,22.3-19.7c16.2-27.4,29.3-56.2,35.6-87.5c7.5-37.5,25.7-69.4,49.8-98.3c9.5-11.3,21.7-18.6,35.9-22.3
				c11.8-3,19.2,2.6,19.7,14.9C794.2,740.1,794,745.6,794,751.1z"/>
			<path class="st1" d="M410.6,1414.7c-15.9,0.7-27-8.1-38.2-17.8c-19.7-17.2-31-39.7-40.8-63c-2.5-6-2.5-12.5,3.2-17.4
				c6-5.1,12.3-9,20.9-5.7c14.3,5.6,28.7,11.3,43.3,16.1c17.3,5.7,35.4,5.1,53.3,4.2c9.3-0.5,18.6-1.2,27.9-1.4
				c24.9-0.4,49.2-5.1,73.2-11.2c38.4-9.7,76.8-19.2,115.2-29c19.4-5,37.4-13.8,54.9-23.2c23.2-12.5,46.7-24.8,68.3-39.6
				c16.8-11.5,31.1-26.5,46.1-40.4c35.2-32.9,67.2-69.1,95.5-108c9.9-13.4,18.9-27.4,27.9-41.3c4.6-7.1,7.7-15.1,12.6-21.9
				c13.4-19.1,31.3-33,52.7-42.2c7.8-3.4,15.6-1.4,23,2c2.2,1,4.4,2.2,6.6,3.4c5.5,2.8,7.3,9.9,4.3,17.1c-4.1,10-8.2,20-12.8,29.7
				c-15.2,32.2-30.1,64.6-46.2,96.3c-12.7,25-28.9,48-48.2,68.3c-15.4,16.3-29.7,33.8-45.4,49.8c-10.5,10.6-22.5,19.7-34.1,29.2
				c-32.7,26.7-69.2,47.3-106.7,66.1c-11.3,5.7-23.9,8.8-36,13.1c-14.6,5.1-29.2,10.2-43.7,15.3c-24.7,8.8-50.3,13.9-75.8,19.1
				c-31.7,6.5-63.2,13.9-94.9,20.4c-13.2,2.7-26.6,4-40,5.6c-16.5,1.9-33,3.5-49.6,5.1C421.6,1414,416.1,1414.3,410.6,1414.7z"/>
			<path class="st1" d="M2.7,669.2C-2.2,619.5,1,569.6,2,519.9c0.3-15.6,2.8-31.2,5.3-46.6c4.8-29.3,9.3-58.8,16.1-87.7
				c4.4-18.8,11.7-36.8,21.5-53.4c9.4-16,21.4-29.7,35-42c5.5-4.8,11.5-8.9,18.1-12.1c6.2-3.2,12.7-2.5,18.3,2.7
				c8.2,7.4,10.6,16.6,9.5,27.1c-2.6,25.7-7.1,50.9-14.7,75.6c-5.9,19.2-11.6,38.5-17.3,57.8c-7,23.5-9.8,47.8-12,72.1
				c-2,21.7-4.1,43.4-6.9,65c-3.5,26.5-3.1,53.1-2.3,79.8c0.4,14.8,0.3,29.7,1.6,44.4c1.8,20.3,4.8,40.6,7.1,60.9
				c2,17.5,3.7,35,5.6,52.6c1.1,10.4,1.3,21,3.5,31.2c5.3,24.6,11.6,49,17.5,73.5c2.4,10.2,4.4,20.5,7.4,30.5
				c2.9,9.5,6.8,18.7,10.3,27.9c7.5,19.8,15.2,39.6,22.7,59.4c3.7,9.9,6.9,20,10.8,29.8c1.5,3.8,4,7.2,6.1,10.8
				c8.9,15.8,14.3,32.7,14.8,50.9c0.2,6.4-5.2,10.1-11.1,7.5c-2.1-1-4-2.3-5.6-4c-12.3-12.3-21.3-26.9-29.1-42.3
				c-14.2-28.4-28.6-56.7-42.6-85.2c-11.6-23.6-22.8-47.4-34-71.3c-2.2-4.6-3.4-9.7-4.9-14.7c-6.3-20.9-12.7-41.7-18.9-62.6
				c-4.9-16.2-10.1-32.4-14.7-48.8c-5.6-20-7.7-40.5-9.3-61.1c-1.7-21.4-4.2-42.7-6.3-64.1C2.9,678.9,2.9,674.1,2.7,669.2z"/>
			<path class="st1" d="M624.5,1725c-0.2-10.1,5.8-15.3,13.9-18.3c10.9-4.1,22-7.4,33.1-11.1c4.7-1.6,9.5-2.9,14.1-4.8
				c12.5-5,24.9-10.2,37.4-15.4c3.4-1.4,6.7-2.9,9.9-4.7c12.4-7.2,24.6-14.6,37-21.6c2.3-1.3,7.1-2.4,7.8-1.4
				c1.8,2.5,3.2,6.4,2.6,9.4c-2.5,12.5-8.9,23.4-17.3,32.7c-9.7,10.7-20.3,20.6-30.2,31.1c-15,15.8-29.6,32-41.2,50.7
				c-3,4.9-6.9,9.3-11.3,12.9c-6.3,5.1-11.2,5-16.4-1.4c-12.9-15.8-27.4-30.4-36.2-49.2C626.4,1731,625.6,1727.9,624.5,1725z"/>
		</g>
	</g>
</g>
</svg>
