<svg width="1350" height="1789" viewBox="0 0 1350 1789" fill="none" xmlns="http://www.w3.org/2000/svg">
<g clip-path="url(#clip0_120_16)">
<path d="M980.441 442.209C978.061 425.879 969.051 414.709 957.971 406.029C939.651 391.679 920.511 378.299 901.031 365.569C892.551 360.029 882.461 356.859 872.921 353.059C857.511 346.919 841.971 341.139 826.471 335.239C816.151 331.309 806.241 326.649 794.471 327.749C786.671 328.479 778.631 326.209 770.671 325.579C751.091 324.029 731.891 327.109 712.601 330.039C683.021 334.529 654.781 343.749 626.461 352.869C620.781 354.689 614.941 356.069 609.121 357.379C597.529 359.881 586.822 365.452 578.121 373.509C560.121 390.109 541.441 406.049 524.711 423.829C514.217 434.807 505.599 447.436 499.201 461.209C495.601 469.149 489.891 476.119 485.201 483.559C483.436 486.17 481.837 488.889 480.411 491.699C469.838 514.119 459.328 536.566 448.881 559.039C443.751 570.039 437.631 580.699 433.781 592.129C422.241 626.429 410.061 660.639 401.011 695.629C391.361 732.919 382.861 770.629 378.891 809.169C377.051 827.039 374.701 844.859 372.441 862.689C368.681 892.319 365.711 922.169 372.201 951.559C377.583 975.412 384.389 998.92 392.581 1021.96C403.174 1052.27 420.201 1079.93 442.491 1103.04C450.871 1111.79 458.311 1121.44 466.781 1130.1C470.901 1134.31 476.361 1137.21 481.261 1140.63C483.171 1141.97 485.461 1142.83 487.151 1144.38C499.941 1156.11 516.151 1162.55 530.151 1172.44C537.501 1177.65 545.821 1179.33 554.401 1180.44C574.061 1182.89 593.551 1180.44 612.871 1177.36C628.231 1174.9 641.781 1167 655.261 1159.73C681.651 1145.44 707.511 1130.09 733.911 1115.85C751.861 1106.13 766.311 1092.16 781.381 1078.92C807.231 1056.23 826.671 1027.92 847.921 1001.3C876.531 965.379 892.311 923.359 903.431 879.589C909.031 857.659 911.841 835.019 915.761 812.669C917.841 800.799 919.901 788.899 921.431 776.949C922.625 767.887 923.326 758.767 923.531 749.629C923.881 732.169 925.071 714.559 923.351 697.269C921.631 679.979 916.881 663.149 913.261 646.149C909.531 628.582 902.437 611.902 892.371 597.029C880.721 579.849 865.371 565.029 846.021 557.029C832.331 551.369 817.021 548.529 802.181 547.029C785.911 545.359 769.041 544.739 753.011 547.269C741.561 549.079 730.511 555.929 720.271 562.159C701.591 573.529 686.651 589.289 673.061 606.309C655.331 628.519 638.061 651.019 623.251 675.369C618.691 682.869 612.901 689.599 607.761 696.759C597.761 710.759 589.981 725.759 585.421 742.569C581.351 757.569 575.421 772.069 570.601 786.889C568.601 793.039 567.921 799.609 565.821 805.709C563.189 813.744 559.949 821.566 556.131 829.109C553.131 834.779 548.301 839.409 540.971 838.589C532.691 837.669 527.551 832.529 524.861 824.919C520.321 812.069 519.231 799.059 520.461 785.299C522.544 761.626 526.646 738.174 532.721 715.199C541.021 683.999 551.551 653.629 566.631 624.819C575.631 607.559 584.371 590.219 596.001 574.569C600.001 569.129 605.001 564.339 609.591 559.349C619.591 548.609 629.271 537.609 639.681 527.349C651.871 515.279 665.191 504.569 681.141 497.549C691.731 492.899 702.091 487.749 712.651 483.029C733.591 473.639 755.651 468.659 778.271 465.099C792.031 462.929 804.881 463.989 818.071 467.409C826.891 469.679 836.071 470.339 844.931 472.619C862.721 477.229 880.251 483.289 894.751 494.739C904.541 502.469 912.611 512.459 921.011 521.839C927.881 529.509 934.141 537.729 940.581 545.779C946.181 552.779 954.721 553.069 962.311 555.659C966.921 557.239 971.771 558.969 975.571 561.869C990.571 573.379 997.881 589.579 1000.49 607.769C1002.63 622.689 1004.44 637.769 1004.68 652.819C1005.11 680.249 1004.05 707.689 1004.01 735.129C1003.94 773.289 996.431 810.129 985.421 846.469C978.911 867.929 972.101 889.309 966.281 910.959C957.371 944.069 944.791 975.599 926.861 1004.78C910.861 1030.87 894.181 1056.6 877.171 1082.06C868.669 1094.6 859.457 1106.64 849.581 1118.13C842.951 1125.93 834.831 1132.46 827.391 1139.58C814.631 1151.78 802.331 1164.51 789.021 1176.08C771.091 1191.66 750.621 1203.55 729.491 1214.35C714.681 1221.91 699.861 1229.5 685.491 1237.83C656.781 1254.45 625.891 1263.74 593.131 1268.05C578.011 1270.05 563.131 1273.75 548.131 1276.91C517.068 1283.64 485.282 1286.44 453.521 1285.24C428.621 1284.24 404.061 1281.92 379.881 1275.92C368.151 1273.01 357.121 1268.67 347.701 1260.65C343.792 1257.54 339.545 1254.88 335.041 1252.72C323.621 1246.79 312.711 1240.32 303.281 1231.31C284.631 1213.51 265.281 1196.56 248.641 1176.6C221.761 1144.25 201.491 1108.16 185.281 1069.6C176.201 1048.01 167.071 1026.41 158.881 1004.47C146.811 972.139 139.451 938.469 132.681 904.709C129.451 888.609 125.291 872.709 122.321 856.549C120.321 845.449 119.981 834.039 118.121 822.899C115.991 810.129 112.991 797.509 110.371 784.829C106.017 763.454 103.343 741.772 102.371 719.979C101.501 701.699 99.5209 683.469 99.0209 665.179C98.6009 649.909 99.3809 634.579 100.021 619.289C100.551 607.179 101.621 595.079 102.651 582.999C104.521 560.999 106.141 538.999 108.651 516.999C110.254 503.621 112.591 490.341 115.651 477.219C121.981 449.549 128.871 422.009 135.651 394.439C140.121 376.179 144.971 358.009 149.131 339.679C150.321 334.439 149.771 328.789 149.881 323.319C150.451 294.859 149.951 266.319 151.881 237.939C153.421 214.729 157.791 191.559 169.881 171.049C180.021 153.829 192.881 138.789 211.011 129.309C232.361 118.159 251.101 103.309 270.181 88.7793C285.241 77.3293 301.041 66.8493 316.441 55.7793C324.331 50.1293 333.191 51.2393 341.911 51.9393C346.014 52.4293 350.043 53.4131 353.911 54.8694C356.181 55.6194 358.741 56.7994 360.151 58.5894C369.961 71.0294 375.291 85.2093 371.611 100.919C369.721 108.989 365.341 116.719 360.971 123.919C349.151 143.409 336.681 162.509 324.591 181.839C321.501 186.769 318.771 191.919 316.041 197.049C311.111 206.299 306.641 215.809 301.361 224.849C290.761 242.999 284.891 262.849 278.571 282.709C269.821 310.229 259.211 337.149 249.921 364.509C243.554 383.276 237.684 402.216 232.311 421.329C224.941 447.769 217.721 474.329 211.551 501.009C207.871 516.949 206.261 533.369 203.831 549.589C202.051 561.529 199.991 573.459 198.921 585.459C197.721 598.869 197.111 612.359 196.921 625.819C196.621 650.139 196.741 674.469 196.921 698.819C197.031 716.819 196.921 734.819 197.971 752.759C198.511 762.429 201.091 771.989 202.861 781.579C205.421 795.489 208.861 809.279 210.561 823.289C216.321 869.289 224.561 914.649 240.711 958.359C244.841 969.539 246.471 981.619 250.231 992.959C253.931 1004.12 258.731 1014.96 263.311 1025.77C273.041 1048.85 284.641 1070.77 300.311 1090.54C313.121 1106.67 324.311 1124.12 336.111 1141.02C354.911 1168.25 381.981 1188.7 413.311 1199.34C425.691 1203.66 438.211 1207.62 450.661 1211.74C451.262 1212.03 451.921 1212.19 452.591 1212.2C455.401 1211.71 458.191 1211.09 460.981 1210.52C459.921 1208.32 459.391 1205.52 457.711 1204.02C449.901 1197.09 442.001 1190.22 433.711 1183.87C414.951 1169.49 395.941 1155.44 377.041 1141.23C363.761 1131.23 353.721 1118.44 345.571 1104.14C330.751 1078.14 314.711 1052.74 301.841 1025.82C287.841 996.479 276.841 965.709 264.531 935.529C262.611 930.789 261.431 925.729 259.351 921.069C253.661 908.339 252.591 894.829 251.651 881.189C250.931 870.699 249.721 860.189 253.711 850.189C257.011 841.899 260.191 833.299 265.111 825.969C276.331 809.259 288.541 793.199 300.461 776.969C305.651 769.899 306.631 761.579 307.241 753.389C309.481 723.119 317.131 694.059 325.671 665.119C334.931 633.719 343.601 602.119 355.571 571.589C365.921 545.139 374.411 517.959 384.831 491.589C396.991 460.739 410.491 430.409 423.111 399.739C427.331 389.489 429.801 378.469 434.541 368.499C447.431 341.369 458.731 313.499 474.541 287.709C493.381 256.999 512.811 226.869 537.291 200.329C551.54 184.846 568.332 171.913 586.941 162.089C600.741 154.769 614.431 148.239 629.791 144.949C645.521 141.579 660.881 136.409 676.651 133.299C688.331 130.999 700.391 130.299 712.321 129.729C725.431 129.139 738.641 128.789 751.701 129.789C764.251 130.789 776.701 133.639 789.141 135.569C795.851 136.569 802.671 137.089 809.321 138.429C820.381 140.669 831.481 142.919 842.321 146.059C853.761 149.369 864.961 153.559 876.161 157.669C896.771 165.249 917.681 172.179 937.751 180.999C960.051 190.852 981.392 202.746 1001.5 216.529C1022.16 230.472 1041.84 245.797 1060.43 262.399C1074.78 275.349 1087.88 289.614 1099.57 305.009C1112.68 322.219 1126.5 338.889 1139.99 355.809C1143.92 360.729 1148.5 364.199 1155.28 363.469C1159.86 362.969 1162.53 360.539 1161.81 356.009C1160.81 350.146 1159.41 344.356 1157.63 338.679C1150.26 314.069 1136.31 293.199 1122.21 271.919C1103.44 243.569 1078.29 222.129 1053.55 199.919C1025.95 175.109 993.891 156.609 963.551 135.649C939.297 118.943 913.003 105.413 885.311 95.3894C859.891 86.1294 833.601 80.7193 806.311 80.3093C796.661 80.1593 786.941 77.9893 777.441 75.9193C751.728 70.4345 725.313 69.0173 699.161 71.7194C677.221 73.8694 656.521 80.9693 635.801 88.0793C616.621 94.6693 598.721 103.409 582.801 116.079C580.361 118.009 577.381 119.299 574.571 120.729C543.311 136.629 513.441 154.979 485.811 176.439C464.811 192.719 447.091 212.699 434.721 236.559C421.251 262.559 407.531 288.559 395.951 315.389C387.041 336.059 380.951 357.999 374.161 379.529C363.861 411.989 354.161 444.649 343.831 477.089C339.701 490.019 334.461 502.589 329.631 515.299C320.311 540.14 314.299 566.1 311.751 592.509C309.511 614.509 306.551 636.389 303.061 658.189C300.151 676.309 291.391 691.849 280.191 706.399C272.121 716.879 256.371 722.399 245.761 719.049C234.241 715.449 226.171 704.729 224.761 690.129C223.246 675.369 223.497 660.48 225.511 645.779C226.631 637.779 225.211 629.359 226.451 621.369C230.631 594.249 235.771 567.279 240.001 540.169C243.321 518.969 245.451 497.569 248.811 476.379C252.751 451.459 255.961 426.279 262.241 401.929C268.241 378.849 277.561 356.629 285.761 334.159C291.071 319.629 297.461 305.479 302.571 290.889C317.781 247.489 340.011 208.269 370.231 173.509C385.721 155.689 399.531 136.329 417.571 120.869C427.281 112.549 437.571 104.869 447.861 97.2793C466.021 83.8093 483.961 69.9894 502.721 57.3994C526.001 41.7594 552.981 34.3993 579.241 25.5593C611.541 14.6493 644.911 9.00932 678.561 4.67932C712.011 0.379321 745.621 -1.48068 779.251 1.42932C803.581 3.53932 827.791 7.03939 852.071 9.74939C863.811 11.0594 875.731 11.2093 887.321 13.2893C904.631 16.3993 921.731 20.6994 938.891 24.6194C944.231 25.8394 949.541 27.2693 954.761 28.9293C963.411 31.6793 972.041 34.4994 980.551 37.6294C991.801 41.7494 1003.12 45.7494 1014.04 50.6294C1022.66 54.4794 1030.74 59.5494 1039.04 64.1494C1049.51 69.9494 1059.77 76.1493 1070.42 81.5593C1078.99 85.9992 1086.76 91.8282 1093.42 98.8093C1100.45 105.875 1107.88 112.52 1115.69 118.709C1140.2 138.489 1159.84 162.409 1177.22 188.519C1198.95 220.937 1217.46 255.401 1232.48 291.419C1244.48 320.419 1253 350.729 1264.04 380.099C1273.74 405.909 1277.91 432.389 1278.04 459.779C1278.12 482.919 1279.52 506.089 1278.73 529.179C1277.92 552.739 1275.92 576.329 1273.04 599.729C1269.04 632.149 1264.45 664.529 1258.77 696.729C1254.11 723.169 1249.05 749.579 1240.58 775.279C1235.58 790.279 1233.24 806.149 1230.24 821.729C1225.24 847.639 1217.88 872.859 1209.66 897.889C1198.2 932.799 1187.17 967.889 1175.46 1002.68C1171.71 1013.83 1166.46 1024.47 1161.83 1035.34C1157.43 1045.75 1152.83 1056.06 1148.68 1066.58C1138.26 1093.26 1127.6 1119.79 1113.48 1144.82C1102.94 1163.51 1094.37 1183.37 1081.01 1200.38C1065.38 1220.28 1049.76 1240.2 1033.55 1259.61C1015.83 1280.83 997.744 1301.74 979.291 1322.34C961.291 1342.56 941.201 1360.5 918.191 1375.05C907.101 1382.05 896.411 1389.72 885.641 1397.23C869.291 1408.62 851.061 1416.23 832.871 1424.05C773.381 1449.56 711.371 1467.3 648.741 1482.75C620.241 1489.75 590.901 1493.35 562.011 1498.84C539.481 1503.12 516.711 1503.22 493.951 1503.62C473.571 1503.98 457.391 1495.92 446.771 1478.35C440.171 1467.42 434.431 1455.95 428.531 1444.61C427.485 1442.35 426.926 1439.89 426.891 1437.4C426.541 1430.4 430.371 1426.4 437.401 1426.51C446.551 1426.69 455.721 1427.67 464.841 1427.31C477.611 1426.79 490.351 1425.47 503.081 1424.31C525.621 1422.19 548.151 1419.97 570.671 1417.65C599.642 1414.59 628.401 1409.79 656.791 1403.26C676.462 1398.89 695.657 1392.6 714.101 1384.48C744.211 1371.11 774.271 1357.56 803.911 1343.19C849.131 1321.25 888.711 1291.09 925.211 1256.86C942.581 1240.57 959.531 1223.76 975.731 1206.32C982.731 1198.76 987.681 1189.17 993.081 1180.21C1000.9 1167.21 1007.96 1153.81 1015.9 1140.92C1049.36 1086.64 1075.78 1028.92 1099.84 970.039C1107.84 950.369 1116.69 930.949 1123.54 910.869C1133.06 882.939 1137.54 853.759 1141.85 824.609C1144.22 808.609 1147.85 792.869 1149.91 776.869C1151.59 763.699 1151.76 750.329 1152.6 737.039C1154.13 712.789 1155.9 688.549 1157.09 664.279C1157.99 645.809 1158.26 627.279 1158.57 608.829C1158.79 595.659 1158.16 582.469 1158.72 569.329C1159.72 545.849 1157.94 522.749 1149.15 500.809C1140.82 480.029 1132.06 459.379 1122.32 439.229C1115.53 425.177 1107.65 411.682 1098.74 398.869C1090.98 387.719 1081.41 377.779 1072.22 367.689C1060.56 354.889 1048.17 342.689 1036.64 329.819C1018.74 309.739 996.451 295.439 973.871 281.639C945.591 264.369 914.231 254.239 883.121 243.419C854.785 233.563 825.49 226.719 795.721 222.999C783.121 221.419 770.171 222.669 757.381 222.519C750.911 222.449 744.381 222.309 737.971 221.859C708.131 219.859 678.371 220.659 649.741 229.679C634.491 234.489 620.301 242.679 605.651 249.349C603.081 250.529 600.721 252.299 598.061 253.139C587.961 256.349 583.771 264.439 580.681 273.519C578.681 279.339 580.971 283.429 586.681 285.459C589.846 286.673 593.238 287.181 596.62 286.948C600.002 286.714 603.292 285.746 606.261 284.109C632.767 270.535 660.78 260.13 689.721 253.109C694.641 251.899 699.931 252.039 705.061 251.809C718.191 251.249 731.331 250.229 744.441 250.579C752.671 250.809 760.821 253.299 769.041 254.579C776.411 255.699 783.851 257.449 791.231 257.289C815.291 256.739 838.231 261.729 860.111 271.079C894.381 285.709 928.921 299.969 958.331 323.759C969.961 333.169 982.441 341.609 993.331 351.759C1005.2 362.953 1016.39 374.844 1026.84 387.369C1042.22 405.529 1057.49 423.869 1071.47 443.109C1079.7 454.436 1086.47 466.761 1091.6 479.789C1101.1 504.089 1110.03 528.639 1115.68 554.319C1123.88 592.205 1128.04 630.856 1128.07 669.619C1128.15 684.979 1126.17 700.369 1124.78 715.719C1123.39 731.069 1120.99 746.119 1120.1 761.389C1117.56 804.819 1104.44 844.829 1081.69 881.639C1071.24 898.289 1055.31 908.709 1036.91 915.089C1027.52 918.359 1020.27 911.689 1021.12 901.149C1023.68 869.489 1026.64 837.869 1029.01 806.149C1031.18 777.279 1033.82 748.389 1034.37 719.469C1034.98 687.019 1034.28 654.469 1032.65 622.069C1031.05 590.399 1021.88 560.499 1005.99 532.919C1000.88 523.703 992.916 516.398 983.291 512.109C960.731 501.979 938.291 491.519 916.291 480.239C905.701 474.819 896.151 467.339 886.291 460.579C876.291 453.699 866.291 447.279 853.751 445.199C840.481 442.999 827.601 438.199 814.311 436.489C798.648 434.346 782.827 433.586 767.031 434.219C752.871 434.939 738.871 438.769 724.791 441.129C714.621 442.829 704.361 444.049 694.251 446.039C678.251 449.199 664.901 458.259 651.361 466.709C630.891 479.469 615.361 496.709 602.591 517.269C590.591 536.629 576.371 554.599 563.381 573.349C559.803 578.733 556.605 584.36 553.811 590.189C545.581 606.539 536.811 622.689 529.631 639.489C516.631 669.729 502.941 699.829 495.521 732.109C492.391 745.709 490.521 759.609 488.111 773.369C488.058 774.199 487.914 775.021 487.681 775.819C480.811 791.279 482.441 807.429 484.181 823.459C486.791 847.599 489.461 871.769 493.061 895.779C495.065 908.763 498.074 921.572 502.061 934.089C508.461 954.539 515.851 974.689 522.971 994.919C530.341 1015.92 543.451 1033.26 557.801 1049.85C567.561 1061.13 577.741 1071.85 591.741 1077.99C605.331 1083.93 618.921 1086.93 632.821 1078.64C635.795 1076.77 639.132 1075.56 642.611 1075.09C649.461 1074.41 656.481 1073.88 663.281 1074.65C670.081 1075.42 674.201 1080.83 674.821 1087.84C676.026 1098.67 672.911 1109.54 666.151 1118.09C654.418 1133.69 637.667 1144.76 618.721 1149.45C597.411 1154.78 575.511 1153.21 556.321 1140.05C540.021 1128.87 522.711 1118.69 508.131 1105.52C480.691 1080.73 456.701 1053 444.911 1016.58C439.511 999.879 432.031 983.859 425.461 967.579C410.951 931.519 405.941 893.959 406.661 855.259C407.048 827.769 409.858 800.366 415.061 773.369C418.791 754.449 422.801 735.589 426.601 716.689C429.721 701.189 430.981 685.079 436.101 670.289C448.861 633.449 459.261 595.739 476.591 560.489C490.191 532.839 507.401 507.489 525.011 482.489C533.541 470.389 545.011 460.239 555.911 449.949C572.581 434.169 588.981 417.889 607.101 403.949C634.411 382.869 664.611 365.949 698.361 357.839C730.901 350.009 764.001 349.899 796.701 358.919C814.331 363.779 832.301 367.579 849.611 373.379C878.141 382.929 904.511 397.149 929.611 413.669C936.261 418.029 943.181 421.999 950.011 426.079C957.861 430.759 965.701 435.459 973.661 439.959C975.721 441.089 978.181 441.469 980.441 442.209Z" fill="#111828"/>
<path d="M1271.65 748.088C1273.33 738.998 1274.94 729.898 1276.74 720.828C1277.74 715.958 1279 711.158 1280.14 706.328C1283.69 692.025 1291 678.932 1301.31 668.408C1305.67 663.914 1310.96 660.43 1316.8 658.201C1322.65 655.972 1328.92 655.053 1335.16 655.508C1340.35 655.858 1342.7 660.128 1343.94 664.008C1346.36 671.198 1348 678.628 1348.83 686.168C1350.61 705.538 1347.09 724.488 1343.68 743.498C1341.54 755.408 1341.27 767.648 1340 779.718C1336.11 816.718 1329.64 853.218 1316.72 888.308C1304.72 920.828 1293.72 953.748 1280.33 985.678C1269.96 1010.42 1256.57 1033.88 1244.61 1057.96C1239.97 1067.32 1236.05 1077.07 1230.96 1086.17C1216.45 1112.11 1201.68 1137.91 1186.67 1163.58C1178.15 1178.24 1170.2 1193.41 1160.13 1206.97C1138.49 1236.1 1115.49 1264.21 1093.36 1292.97C1081.31 1308.66 1069.15 1324.36 1058.31 1340.89C1040.43 1368.12 1020.12 1393.35 998.961 1418.02C990.521 1427.87 983.231 1438.7 974.741 1448.5C955.764 1470.19 935.575 1490.79 914.271 1510.2C898.851 1524.41 884.081 1539.36 869.401 1554.34C844.401 1579.82 818.891 1604.74 788.901 1624.34C778.551 1631.09 767.071 1636.39 755.601 1641.09C731.931 1650.77 707.861 1659.45 684.061 1668.81C668.421 1674.96 652.571 1680.08 635.891 1682.63C628.551 1683.75 621.361 1685.82 614.101 1687.41C603.101 1689.83 595.191 1683.27 587.581 1677.29C582.065 1672.75 577.179 1667.49 573.051 1661.66C568.531 1655.54 564.961 1648.66 561.191 1642.04C555.561 1632.11 558.541 1624.31 569.731 1621.5C580.164 1618.88 590.742 1616.88 601.411 1615.5C619.971 1613.11 637.671 1608.07 655.121 1601.39C669.171 1596.01 683.791 1592.11 698.121 1587.52C703.321 1585.87 708.481 1584.11 713.671 1582.46C734.671 1575.78 755.781 1569.16 776.801 1562.41C782.011 1560.74 787.191 1558.92 792.211 1556.78C802.521 1552.38 810.021 1539.65 809.211 1528.48C808.921 1524.62 805.151 1522.62 800.411 1524.29C792.291 1527.17 784.311 1530.44 776.221 1533.4C736.861 1547.81 697.531 1562.34 658.061 1576.49C640.881 1582.65 623.631 1588.81 606.061 1593.54C585.431 1599.08 564.431 1603.54 542.761 1601.22C539.796 1600.83 536.936 1599.86 534.341 1598.38C517.791 1589.09 503.341 1577.43 495.831 1559.38C493.221 1553.11 492.391 1545.95 491.701 1539.11C491.501 1537.11 494.071 1533.85 496.191 1532.75C502.011 1529.75 508.311 1529.33 515.031 1529.85C525.817 1530.63 536.643 1530.72 547.441 1530.11C596.441 1527.61 644.161 1518.11 690.811 1503.26C708.701 1497.57 726.301 1490.85 743.811 1484.04C769.691 1474.04 795.321 1463.31 821.171 1453.18C833.551 1448.32 846.251 1444.26 858.671 1439.49C865.171 1437 871.771 1434.38 877.671 1430.71C903.201 1414.71 929.381 1399.58 953.551 1381.71C973.371 1367.07 992.551 1351.17 1007.55 1330.87C1021.55 1311.87 1037.39 1294.2 1051.66 1275.38C1068.66 1252.98 1085.23 1230.31 1099.92 1206.23C1111.77 1186.79 1125.49 1168.5 1137.92 1149.41C1145.63 1137.58 1152.53 1125.22 1159.76 1113.08C1160.52 1111.79 1161.19 1110.46 1161.76 1109.08C1170.25 1089.23 1179.04 1069.49 1187.11 1049.46C1191.83 1037.77 1194.47 1025.2 1199.66 1013.76C1210.8 989.258 1218.97 963.598 1231.32 939.468C1240.2 922.118 1244.76 902.318 1249.57 883.188C1255.31 859.808 1259.58 836.038 1264.31 812.398C1266.99 798.888 1269.46 785.318 1271.46 771.698C1272.6 763.988 1272.61 756.118 1273.13 748.318L1271.65 748.088Z" fill="#111828"/>
<path d="M794.031 751.148C794.511 777.438 788.581 802.328 777.251 825.938C769.121 842.868 760.251 859.438 752.331 876.468C743.211 896.088 735.211 916.218 725.921 935.738C720.011 948.158 714.151 961.108 705.571 971.618C691.978 988.225 677.128 1003.76 661.151 1018.09C648.831 1029.16 632.971 1031.81 616.231 1028.82C602.281 1026.33 589.511 1021.45 580.871 1010.15C568.661 994.148 558.011 977.588 555.371 956.418C551.941 928.838 557.691 903.138 566.501 877.598C579.311 840.488 590.041 802.478 608.851 767.808C626.151 735.948 642.271 703.158 664.901 674.608C683.501 651.128 703.241 628.398 726.901 609.688C744.851 595.488 765.451 587.588 788.541 587.258C796.35 587.126 804.161 587.46 811.931 588.258C824.831 589.618 835.071 596.628 843.581 605.768C852.091 614.908 860.971 624.378 867.581 634.998C873.631 644.748 877.791 655.998 881.121 666.998C886.391 684.478 891.011 702.238 894.551 720.148C898.131 738.308 896.211 756.598 892.551 774.718C889.331 790.718 887.331 806.908 883.551 822.718C878.951 841.718 873.801 860.718 867.411 879.248C861.341 896.828 854.521 914.358 845.921 930.808C836.542 948.457 825.936 965.426 814.181 981.588C801.181 999.678 786.571 1016.59 772.681 1034.04C768.221 1039.64 764.081 1045.51 759.331 1050.84C752.331 1058.65 744.451 1064.95 733.561 1066.9C729.031 1067.71 725.351 1067.12 721.801 1064.71C709.731 1056.54 705.561 1043.42 711.221 1029.99C723.811 1000.13 740.291 972.418 758.921 945.988C766.093 935.596 771.881 924.315 776.141 912.428C789.461 876.688 802.771 840.878 810.581 803.518C815.411 780.448 817.351 756.778 820.581 733.378C822.391 720.468 820.881 707.788 817.691 695.298C816.703 691.439 815.092 687.767 812.921 684.428C806.181 674.208 789.701 671.038 780.461 679.198C750.121 705.988 719.841 732.998 696.971 766.858C673.276 802.212 653.601 840.1 638.311 879.818C632.001 895.978 628.751 913.368 624.741 930.348C623.681 934.848 624.741 939.928 625.271 944.708C625.601 947.808 627.391 948.588 630.631 947.528C640.971 944.128 647.631 936.758 652.941 927.798C669.181 900.408 682.221 871.618 688.521 840.288C696.051 802.808 714.221 770.938 738.341 742.018C747.811 730.668 760.001 723.388 774.271 719.748C786.081 716.748 793.441 722.358 793.961 734.658C794.231 740.148 794.031 745.648 794.031 751.148Z" fill="#111828"/>
<path d="M410.65 1414.67C394.77 1415.41 383.6 1406.56 372.45 1396.84C352.75 1379.66 341.45 1357.18 331.61 1333.79C329.1 1327.84 329.12 1321.26 334.85 1316.41C340.85 1311.32 347.15 1307.41 355.7 1310.75C370.05 1316.35 384.38 1322.06 399.01 1326.87C416.31 1332.57 434.37 1331.99 452.31 1331.09C461.61 1330.61 470.9 1329.88 480.21 1329.73C505.13 1329.32 529.38 1324.66 553.43 1318.58C591.82 1308.89 630.26 1299.37 668.62 1289.58C688.03 1284.58 706 1275.83 723.49 1266.37C746.65 1253.86 770.14 1241.62 791.79 1226.78C808.54 1215.29 822.93 1200.28 837.9 1186.34C873.086 1153.44 905.075 1117.28 933.44 1078.34C943.31 1064.93 952.31 1050.97 961.31 1037.04C965.89 1029.97 969.05 1021.96 973.89 1015.1C987.33 996.04 1005.15 982.1 1026.55 972.89C1034.38 969.53 1042.14 971.51 1049.55 974.94C1051.8 975.94 1053.97 977.18 1056.17 978.32C1061.64 981.17 1063.47 988.18 1060.44 995.44C1056.29 1005.44 1052.27 1015.44 1047.67 1025.18C1032.47 1057.39 1017.57 1089.75 1001.52 1121.52C988.845 1146.51 972.605 1169.53 953.31 1189.85C937.88 1206.18 923.64 1223.66 907.89 1239.67C897.43 1250.29 885.4 1259.39 873.81 1268.85C841.11 1295.51 804.58 1316.11 767.08 1334.98C755.77 1340.67 743.15 1343.79 731.08 1348.04C716.51 1353.18 701.9 1358.2 687.35 1363.39C662.67 1372.18 637.09 1377.25 611.5 1382.46C579.79 1388.91 548.28 1396.38 516.56 1402.82C503.4 1405.5 489.94 1406.82 476.56 1408.4C460.06 1410.32 443.56 1411.87 426.99 1413.49C421.6 1414.03 416.12 1414.29 410.65 1414.67Z" fill="#111828"/>
<path d="M2.6609 669.249C-2.2591 619.509 0.930982 569.699 1.99098 519.939C2.33098 504.369 4.77092 488.749 7.30092 473.329C12.1309 443.989 16.5609 414.489 23.4309 385.599C27.8603 366.826 35.0914 348.828 44.8809 332.209C54.3209 316.209 66.3109 302.559 79.8809 290.209C85.3464 285.387 91.43 281.314 97.971 278.099C104.221 274.899 110.621 275.579 116.311 280.759C124.471 288.189 126.861 297.409 125.821 307.879C123.261 333.539 118.721 358.809 111.111 383.499C105.191 402.719 99.5609 422.029 93.8109 441.299C86.8109 464.839 84.0609 489.089 81.8109 513.439C79.8109 535.129 77.6909 556.829 74.8809 578.439C71.4209 604.989 71.7609 631.589 72.5409 658.229C72.9809 673.049 72.801 687.919 74.101 702.669C75.901 723.009 78.9309 743.239 81.2509 763.549C83.2509 781.059 84.991 798.549 86.851 816.119C87.951 826.529 88.151 837.119 90.361 847.309C95.701 871.929 101.981 896.309 107.861 920.839C110.311 931.029 112.231 941.369 115.241 951.389C118.091 960.879 122.021 970.049 125.551 979.329C133.101 999.149 140.771 1018.92 148.241 1038.77C151.961 1048.65 155.181 1058.77 159.001 1068.55C160.481 1072.36 163.001 1075.74 165.061 1079.34C173.971 1095.15 179.381 1112.01 179.901 1130.25C180.081 1136.65 174.681 1140.3 168.821 1137.73C166.731 1136.74 164.837 1135.39 163.231 1133.73C150.901 1121.45 141.901 1106.86 134.161 1091.42C119.931 1063.04 105.521 1034.74 91.5209 1006.24C79.9209 982.619 68.7109 958.809 57.5209 934.979C55.3509 930.349 54.131 925.249 52.621 920.319C46.281 899.459 39.9676 878.585 33.6809 857.699C28.7709 841.449 23.5809 825.279 19.0309 808.939C13.4609 788.939 11.2909 768.479 9.69093 747.849C8.03093 726.459 5.48092 705.129 3.43092 683.759C2.94092 678.919 2.9009 674.089 2.6609 669.249Z" fill="#111828"/>
<path d="M624.491 1725C624.261 1714.94 630.291 1709.7 638.421 1706.66C649.301 1702.6 660.421 1699.23 671.481 1695.57C676.201 1693.99 681.011 1692.65 685.631 1690.8C698.121 1685.8 710.551 1680.62 722.981 1675.43C726.377 1674.07 729.684 1672.5 732.881 1670.72C745.231 1663.56 757.431 1656.13 769.881 1649.11C772.171 1647.82 776.971 1646.75 777.701 1647.74C779.541 1650.21 780.921 1654.16 780.341 1657.1C777.861 1669.62 771.431 1680.46 763.021 1689.8C753.371 1700.53 742.741 1710.38 732.801 1720.87C717.801 1736.69 703.251 1752.87 691.641 1771.53C688.592 1776.42 684.765 1780.79 680.311 1784.45C674.001 1789.57 669.151 1789.45 663.921 1783.07C651.001 1767.31 636.501 1752.63 627.721 1733.83C626.371 1731 625.551 1727.95 624.491 1725Z" fill="#111828"/>
</g>
<defs>
<clipPath id="clip0_120_16">
<rect width="1349.31" height="1788.09" fill="white" transform="translate(1349.31 1788.09) rotate(-180)"/>
</clipPath>
</defs>
</svg>
