<?xml version="1.0" encoding="utf-8"?>
<!-- Generator: Adobe Illustrator 25.2.1, SVG Export Plug-In . SVG Version: 6.00 Build 0)  -->
<svg version="1.1" id="Layer_1" xmlns="http://www.w3.org/2000/svg" xmlns:xlink="http://www.w3.org/1999/xlink" x="0px" y="0px"
	 viewBox="0 0 512 512" style="enable-background:new 0 0 512 512;" xml:space="preserve">
<g>
	<g>
		<g>
			<path d="M256,512c141.4,0,256-114.6,256-256S397.4,0,256,0S0,114.6,0,256S114.6,512,256,512z M256,42.7
				c117.8,0,213.3,95.5,213.3,213.3c0,117.8-95.5,213.3-213.3,213.3S42.7,373.8,42.7,256S138.2,42.7,256,42.7z"/>
			<path d="M283.6,377.8c8.3,8.3,21.8,8.3,30.2,0s8.3-21.8,0-30.2L222.2,256l91.6-91.6c8.3-8.3,8.3-21.8,0-30.2
				c-8.3-8.3-21.8-8.3-30.2,0L176.9,240.9c-8.3,8.3-8.3,21.8,0,30.2L283.6,377.8z"/>
		</g>
	</g>
</g>
</svg>
